<?xml version="1.0" ?><!DOCTYPE svg  PUBLIC '-//W3C//DTD SVG 1.1 Tiny//EN'  'http://www.w3.org/Graphics/SVG/1.1/DTD/svg11-tiny.dtd'><svg baseProfile="tiny" height="128px" id="Layer_1" overflow="scroll" version="1.1" viewBox="0 0 128 128" width="128px" xml:space="preserve" xmlns="http://www.w3.org/2000/svg" xmlns:xlink="http://www.w3.org/1999/xlink"><g><path d="M81.2,41.7v-0.3c0-1.4-1.1-2.5-2.5-2.5H49.3c-1.4,0-2.5,1.1-2.5,2.5v0.3   c-2.8,0.4-5,2.9-5,5.8v57.3c0,2.8,2,5.2,4.7,5.8v0.1c0,1.4,1.1,2.5,2.5,2.5H79c1.4,0,2.5-1.1,2.5-2.5v-0.1c2.7-0.6,4.7-3,4.7-5.8   V47.6C86.2,44.6,84,42.2,81.2,41.7z" fill="#94C83D" fill-rule="evenodd"/><path d="M55.1,29.2c-0.3-0.3-0.6-0.4-1-0.4c-0.4,0-0.7,0.2-1,0.4h0c-0.3,0.3-0.4,0.6-0.4,1c0,0.4,0.2,0.7,0.4,1l0,0   c0.3,0.3,0.6,0.4,1,0.4c0.4,0,0.7-0.2,1-0.4v0c0.3-0.3,0.4-0.6,0.4-1C55.5,29.8,55.4,29.4,55.1,29.2 M54.1,27.4   c0.8,0,1.5,0.3,2,0.8c0.5,0.5,0.8,1.2,0.8,2c0,0.8-0.3,1.5-0.8,2l0,0c-0.5,0.5-1.2,0.8-2,0.8c-0.8,0-1.5-0.3-2-0.8l0,0l0,0   c-0.5-0.5-0.8-1.2-0.8-2c0-0.8,0.3-1.5,0.8-2l0,0C52.6,27.7,53.3,27.4,54.1,27.4z" fill="#FFCC03"/><path d="M64.8,22.5c-0.2-0.2-0.5-0.3-0.7-0.3c-0.3,0-0.6,0.1-0.7,0.3h0C63.2,22.7,63,23,63,23.2   c0,0.3,0.1,0.6,0.3,0.7l0,0c0.2,0.2,0.5,0.3,0.7,0.3c0.3,0,0.6-0.1,0.7-0.3v0c0.2-0.2,0.3-0.5,0.3-0.7C65.2,23,65,22.7,64.8,22.5    M64.1,21.1c0.6,0,1.1,0.2,1.5,0.6c0.4,0.4,0.6,0.9,0.6,1.5c0,0.6-0.2,1.1-0.6,1.5l0,0c-0.4,0.4-0.9,0.6-1.5,0.6   c-0.6,0-1.1-0.2-1.5-0.6l0,0l0,0c-0.4-0.4-0.6-0.9-0.6-1.5c0-0.6,0.2-1.1,0.6-1.5l0,0C63,21.4,63.5,21.1,64.1,21.1z" fill="#FFCC03"/><path d="M69,30.9c-0.3-0.3-0.7-0.5-1.1-0.5s-0.8,0.2-1.1,0.5h0c-0.3,0.3-0.5,0.7-0.5,1.1c0,0.4,0.2,0.8,0.5,1.1l0,0   c0.3,0.3,0.7,0.5,1.1,0.5s0.8-0.2,1.1-0.5v0c0.3-0.3,0.5-0.7,0.5-1.1C69.4,31.6,69.2,31.2,69,30.9 M67.8,28.8   c0.9,0,1.7,0.4,2.3,0.9c0.6,0.6,0.9,1.4,0.9,2.3c0,0.9-0.4,1.7-0.9,2.3l0,0c-0.6,0.6-1.4,0.9-2.3,0.9c-0.9,0-1.7-0.4-2.3-0.9l0,0   l0,0c-0.6-0.6-0.9-1.4-0.9-2.3c0-0.9,0.4-1.7,0.9-2.3l0,0C66.1,29.2,66.9,28.8,67.8,28.8z" fill="#FFCC03"/><path d="M75.4,20.6c-0.1-0.1-0.3-0.2-0.5-0.2c-0.2,0-0.4,0.1-0.5,0.2h0c-0.1,0.1-0.2,0.3-0.2,0.5   c0,0.2,0.1,0.4,0.2,0.5l0,0c0.1,0.1,0.3,0.2,0.5,0.2c0.2,0,0.4-0.1,0.5-0.2v0c0.1-0.1,0.2-0.3,0.2-0.5   C75.6,20.9,75.5,20.8,75.4,20.6 M74.9,19.7c0.4,0,0.7,0.2,1,0.4c0.3,0.3,0.4,0.6,0.4,1c0,0.4-0.2,0.7-0.4,1l0,0   c-0.3,0.3-0.6,0.4-1,0.4c-0.4,0-0.7-0.2-1-0.4l0,0l0,0c-0.3-0.3-0.4-0.6-0.4-1c0-0.4,0.2-0.7,0.4-1l0,0   C74.2,19.9,74.5,19.7,74.9,19.7z" fill="#FFCC03"/><path d="M61.7,31.9c-0.1-0.1-0.3-0.2-0.5-0.2c-0.2,0-0.4,0.1-0.5,0.2h0c-0.1,0.1-0.2,0.3-0.2,0.5   c0,0.2,0.1,0.4,0.2,0.5l0,0c0.1,0.1,0.3,0.2,0.5,0.2c0.2,0,0.4-0.1,0.5-0.2v0c0.1-0.1,0.2-0.3,0.2-0.5C61.9,32.2,61.8,32,61.7,31.9    M61.2,31c0.4,0,0.7,0.2,1,0.4c0.3,0.3,0.4,0.6,0.4,1c0,0.4-0.2,0.7-0.4,1l0,0c-0.3,0.3-0.6,0.4-1,0.4c-0.4,0-0.7-0.2-1-0.4l0,0   l0,0c-0.3-0.3-0.4-0.6-0.4-1c0-0.4,0.2-0.7,0.4-1l0,0C60.4,31.2,60.8,31,61.2,31z" fill="#FFCC03"/><path d="M55.5,15.7c-0.1-0.1-0.3-0.2-0.5-0.2c-0.2,0-0.4,0.1-0.5,0.2h0c-0.1,0.1-0.2,0.3-0.2,0.5   c0,0.2,0.1,0.4,0.2,0.5l0,0c0.1,0.1,0.3,0.2,0.5,0.2c0.2,0,0.4-0.1,0.5-0.2v0c0.1-0.1,0.2-0.3,0.2-0.5C55.7,16,55.7,15.8,55.5,15.7    M55,14.8c0.4,0,0.7,0.2,1,0.4c0.3,0.3,0.4,0.6,0.4,1c0,0.4-0.2,0.7-0.4,1l0,0c-0.3,0.3-0.6,0.4-1,0.4c-0.4,0-0.7-0.2-1-0.4l0,0   l0,0c-0.3-0.3-0.4-0.6-0.4-1c0-0.4,0.2-0.7,0.4-1l0,0C54.3,14.9,54.7,14.8,55,14.8z" fill="#FFCC03"/><path d="M46.6,47.5h34.9c0.6,0,1.1-0.5,1.1-1.1v0c0-0.6-0.5-1.1-1.1-1.1H46.6   c-0.6,0-1.1,0.5-1.1,1.1v0C45.5,47.1,46,47.5,46.6,47.5" fill="#648C3C" fill-rule="evenodd"/><path d="M46.6,105.2h34.9c0.6,0,1.1-0.5,1.1-1.1v0c0-0.6-0.5-1.1-1.1-1.1H46.6   c-0.6,0-1.1,0.5-1.1,1.1v0C45.5,104.7,46,105.2,46.6,105.2" fill="#648C3C" fill-rule="evenodd"/><rect fill="#FFFAD6" fill-rule="evenodd" height="24.1" width="44.4" x="41.8" y="64.2"/></g></svg>