<?xml version="1.0" encoding="UTF-8" standalone="no"?>
<svg
   height="128px"
   id="Layer_1"
   overflow="scroll"
   version="1.1"
   viewBox="0 0 128 128"
   width="128px"
   xml:space="preserve"
   sodipodi:docname="BeerCan.svg"
   inkscape:export-filename="BeerCan.png"
   inkscape:export-xdpi="200"
   inkscape:export-ydpi="200"
   inkscape:version="1.2.1 (9c6d41e410, 2022-07-14)"
   xmlns:inkscape="http://www.inkscape.org/namespaces/inkscape"
   xmlns:sodipodi="http://sodipodi.sourceforge.net/DTD/sodipodi-0.dtd"
   xmlns="http://www.w3.org/2000/svg"
   xmlns:svg="http://www.w3.org/2000/svg"><defs
     id="defs61" /><sodipodi:namedview
     id="namedview59"
     pagecolor="#ffffff"
     bordercolor="#000000"
     borderopacity="0.25"
     inkscape:showpageshadow="2"
     inkscape:pageopacity="0.0"
     inkscape:pagecheckerboard="0"
     inkscape:deskcolor="#d1d1d1"
     showgrid="false"
     inkscape:zoom="6.1328125"
     inkscape:cx="64.815287"
     inkscape:cy="64"
     inkscape:window-width="1920"
     inkscape:window-height="1001"
     inkscape:window-x="-9"
     inkscape:window-y="-9"
     inkscape:window-maximized="1"
     inkscape:current-layer="Layer_1" /><g
     id="g56"><path
       d="M81.2,41.7v-0.3c0-1.4-1.1-2.5-2.5-2.5H49.3c-1.4,0-2.5,1.1-2.5,2.5v0.3   c-2.8,0.4-5,2.9-5,5.8v57.3c0,2.8,2,5.2,4.7,5.8v0.1c0,1.4,1.1,2.5,2.5,2.5H79c1.4,0,2.5-1.1,2.5-2.5v-0.1c2.7-0.6,4.7-3,4.7-5.8   V47.6C86.2,44.6,84,42.2,81.2,41.7z"
       fill="#94C83D"
       fill-rule="evenodd"
       id="path36" /><path
       d="M55.1,29.2c-0.3-0.3-0.6-0.4-1-0.4c-0.4,0-0.7,0.2-1,0.4h0c-0.3,0.3-0.4,0.6-0.4,1c0,0.4,0.2,0.7,0.4,1l0,0   c0.3,0.3,0.6,0.4,1,0.4c0.4,0,0.7-0.2,1-0.4v0c0.3-0.3,0.4-0.6,0.4-1C55.5,29.8,55.4,29.4,55.1,29.2 M54.1,27.4   c0.8,0,1.5,0.3,2,0.8c0.5,0.5,0.8,1.2,0.8,2c0,0.8-0.3,1.5-0.8,2l0,0c-0.5,0.5-1.2,0.8-2,0.8c-0.8,0-1.5-0.3-2-0.8l0,0l0,0   c-0.5-0.5-0.8-1.2-0.8-2c0-0.8,0.3-1.5,0.8-2l0,0C52.6,27.7,53.3,27.4,54.1,27.4z"
       fill="#FFCC03"
       id="path38" /><path
       d="M64.8,22.5c-0.2-0.2-0.5-0.3-0.7-0.3c-0.3,0-0.6,0.1-0.7,0.3h0C63.2,22.7,63,23,63,23.2   c0,0.3,0.1,0.6,0.3,0.7l0,0c0.2,0.2,0.5,0.3,0.7,0.3c0.3,0,0.6-0.1,0.7-0.3v0c0.2-0.2,0.3-0.5,0.3-0.7C65.2,23,65,22.7,64.8,22.5    M64.1,21.1c0.6,0,1.1,0.2,1.5,0.6c0.4,0.4,0.6,0.9,0.6,1.5c0,0.6-0.2,1.1-0.6,1.5l0,0c-0.4,0.4-0.9,0.6-1.5,0.6   c-0.6,0-1.1-0.2-1.5-0.6l0,0l0,0c-0.4-0.4-0.6-0.9-0.6-1.5c0-0.6,0.2-1.1,0.6-1.5l0,0C63,21.4,63.5,21.1,64.1,21.1z"
       fill="#FFCC03"
       id="path40" /><path
       d="M69,30.9c-0.3-0.3-0.7-0.5-1.1-0.5s-0.8,0.2-1.1,0.5h0c-0.3,0.3-0.5,0.7-0.5,1.1c0,0.4,0.2,0.8,0.5,1.1l0,0   c0.3,0.3,0.7,0.5,1.1,0.5s0.8-0.2,1.1-0.5v0c0.3-0.3,0.5-0.7,0.5-1.1C69.4,31.6,69.2,31.2,69,30.9 M67.8,28.8   c0.9,0,1.7,0.4,2.3,0.9c0.6,0.6,0.9,1.4,0.9,2.3c0,0.9-0.4,1.7-0.9,2.3l0,0c-0.6,0.6-1.4,0.9-2.3,0.9c-0.9,0-1.7-0.4-2.3-0.9l0,0   l0,0c-0.6-0.6-0.9-1.4-0.9-2.3c0-0.9,0.4-1.7,0.9-2.3l0,0C66.1,29.2,66.9,28.8,67.8,28.8z"
       fill="#FFCC03"
       id="path42" /><path
       d="M75.4,20.6c-0.1-0.1-0.3-0.2-0.5-0.2c-0.2,0-0.4,0.1-0.5,0.2h0c-0.1,0.1-0.2,0.3-0.2,0.5   c0,0.2,0.1,0.4,0.2,0.5l0,0c0.1,0.1,0.3,0.2,0.5,0.2c0.2,0,0.4-0.1,0.5-0.2v0c0.1-0.1,0.2-0.3,0.2-0.5   C75.6,20.9,75.5,20.8,75.4,20.6 M74.9,19.7c0.4,0,0.7,0.2,1,0.4c0.3,0.3,0.4,0.6,0.4,1c0,0.4-0.2,0.7-0.4,1l0,0   c-0.3,0.3-0.6,0.4-1,0.4c-0.4,0-0.7-0.2-1-0.4l0,0l0,0c-0.3-0.3-0.4-0.6-0.4-1c0-0.4,0.2-0.7,0.4-1l0,0   C74.2,19.9,74.5,19.7,74.9,19.7z"
       fill="#FFCC03"
       id="path44" /><path
       d="M61.7,31.9c-0.1-0.1-0.3-0.2-0.5-0.2c-0.2,0-0.4,0.1-0.5,0.2h0c-0.1,0.1-0.2,0.3-0.2,0.5   c0,0.2,0.1,0.4,0.2,0.5l0,0c0.1,0.1,0.3,0.2,0.5,0.2c0.2,0,0.4-0.1,0.5-0.2v0c0.1-0.1,0.2-0.3,0.2-0.5C61.9,32.2,61.8,32,61.7,31.9    M61.2,31c0.4,0,0.7,0.2,1,0.4c0.3,0.3,0.4,0.6,0.4,1c0,0.4-0.2,0.7-0.4,1l0,0c-0.3,0.3-0.6,0.4-1,0.4c-0.4,0-0.7-0.2-1-0.4l0,0   l0,0c-0.3-0.3-0.4-0.6-0.4-1c0-0.4,0.2-0.7,0.4-1l0,0C60.4,31.2,60.8,31,61.2,31z"
       fill="#FFCC03"
       id="path46" /><path
       d="M55.5,15.7c-0.1-0.1-0.3-0.2-0.5-0.2c-0.2,0-0.4,0.1-0.5,0.2h0c-0.1,0.1-0.2,0.3-0.2,0.5   c0,0.2,0.1,0.4,0.2,0.5l0,0c0.1,0.1,0.3,0.2,0.5,0.2c0.2,0,0.4-0.1,0.5-0.2v0c0.1-0.1,0.2-0.3,0.2-0.5C55.7,16,55.7,15.8,55.5,15.7    M55,14.8c0.4,0,0.7,0.2,1,0.4c0.3,0.3,0.4,0.6,0.4,1c0,0.4-0.2,0.7-0.4,1l0,0c-0.3,0.3-0.6,0.4-1,0.4c-0.4,0-0.7-0.2-1-0.4l0,0   l0,0c-0.3-0.3-0.4-0.6-0.4-1c0-0.4,0.2-0.7,0.4-1l0,0C54.3,14.9,54.7,14.8,55,14.8z"
       fill="#FFCC03"
       id="path48" /><path
       d="M46.6,47.5h34.9c0.6,0,1.1-0.5,1.1-1.1v0c0-0.6-0.5-1.1-1.1-1.1H46.6   c-0.6,0-1.1,0.5-1.1,1.1v0C45.5,47.1,46,47.5,46.6,47.5"
       fill="#648C3C"
       fill-rule="evenodd"
       id="path50" /><path
       d="M46.6,105.2h34.9c0.6,0,1.1-0.5,1.1-1.1v0c0-0.6-0.5-1.1-1.1-1.1H46.6   c-0.6,0-1.1,0.5-1.1,1.1v0C45.5,104.7,46,105.2,46.6,105.2"
       fill="#648C3C"
       fill-rule="evenodd"
       id="path52" /><rect
       fill="#FFFAD6"
       fill-rule="evenodd"
       height="24.1"
       width="44.4"
       x="41.8"
       y="64.2"
       id="rect54" /></g><text
     xml:space="preserve"
     style="font-weight:bold;font-size:16px;font-family:sans-serif;-inkscape-font-specification:'sans-serif Bold';text-align:center;text-anchor:middle;fill:#800000"
     x="64.244583"
     y="82.670067"
     id="text221"><tspan
       sodipodi:role="line"
       id="tspan219"
       x="64.244583"
       y="82.670067">Birra</tspan></text></svg>
