<?xml version="1.0" encoding="UTF-8" standalone="no"?>
<!-- Created with Inkscape (http://www.inkscape.org/) -->

<svg
   width="11in"
   height="8.5in"
   viewBox="0 0 10.41152 8.0452655"
   version="1.1"
   id="svg5"
   inkscape:version="1.2.1 (9c6d41e410, 2022-07-14)"
   sodipodi:docname="BevandeTitolo.svg"
   xmlns:inkscape="http://www.inkscape.org/namespaces/inkscape"
   xmlns:sodipodi="http://sodipodi.sourceforge.net/DTD/sodipodi-0.dtd"
   xmlns="http://www.w3.org/2000/svg"
   xmlns:svg="http://www.w3.org/2000/svg">
  <sodipodi:namedview
     id="namedview7"
     pagecolor="#ffffff"
     bordercolor="#000000"
     borderopacity="0.25"
     inkscape:showpageshadow="2"
     inkscape:pageopacity="0.0"
     inkscape:pagecheckerboard="0"
     inkscape:deskcolor="#d1d1d1"
     inkscape:document-units="in"
     showgrid="true"
     inkscape:zoom="0.72552083"
     inkscape:cx="936.56856"
     inkscape:cy="539.61235"
     inkscape:window-width="1920"
     inkscape:window-height="1001"
     inkscape:window-x="-9"
     inkscape:window-y="-9"
     inkscape:window-maximized="1"
     inkscape:current-layer="layer1">
    <inkscape:grid
       type="xygrid"
       id="grid209"
       originx="0"
       originy="0" />
  </sodipodi:namedview>
  <defs
     id="defs2">
    <rect
       x="155.23341"
       y="199.0172"
       width="433.85748"
       height="67.665848"
       id="rect132" />
  </defs>
  <g
     inkscape:label="Livello 1"
     inkscape:groupmode="layer"
     id="layer1">
    <text
       xml:space="preserve"
       id="text130"
       style="font-size:37.3333px;white-space:pre;shape-inside:url(#rect132);shape-padding:10.6143;display:inline;fill:#000000;image-rendering:optimizeQuality"
       x="165.40219"
       y="0"
       transform="matrix(2.4715529,0,0,9.7449072,-79.540656,-2066.9253)"><tspan
         x="183.73649"
         y="243.69116"
         id="tspan1265"><tspan
           style="font-weight:bold;-inkscape-font-specification:'sans-serif Bold';text-align:center;text-anchor:middle;fill:#800000"
           id="tspan1263">Bevande alcoliche </tspan></tspan></text>
    <path
       id="path308"
       style="font-size:1.80656px;-inkscape-font-specification:sans-serif;text-align:center;text-anchor:middle;fill:#800000;stroke-width:0.0735469"
       d="M 4.0980475,0.04566325 V 1.1646348 c -0.02856,-0.06011 -0.055782,-0.1040342 -0.081677,-0.1317775 -0.025897,-0.029284 -0.0556,-0.0439259 -0.089109,-0.0439259 -0.036939,0 -0.07274,0.0308316 -0.1073911,0.0924831 -0.034274,0.061651 -0.064351,0.1510494 -0.090247,0.2681863 -0.026274,0.1202193 -0.047234,0.2658457 -0.062847,0.436927 -0.015233,0.1710811 -0.022851,0.3660689 -0.022851,0.5849299 0,0.4207674 0.022292,0.7498378 0.066847,0.9871941 0.044936,0.237357 0.1054715,0.3560379 0.1816324,0.3560379 0.039223,0 0.075608,-0.030073 0.1091181,-0.090183 0.033513,-0.060109 0.065677,-0.1441003 0.096523,-0.2519914 v 0.270488 H 4.2054378 V 0.04566325 Z m 2.1306448,0 V 3.643004 h 0.107372 V 0.04566325 Z m 1.6405271,0 V 3.643004 H 7.9766089 V 0.04566325 Z m 1.250388,0 V 3.643004 H 9.2270192 V 1.7148723 c 0.029322,-0.090936 0.059988,-0.1656922 0.091975,-0.2242607 0.03199,-0.058568 0.062632,-0.087851 0.091953,-0.087851 0.028562,0 0.051794,0.01619 0.069691,0.048557 0.017907,0.030826 0.031613,0.078609 0.041133,0.1433414 0.00914,0.058568 0.015424,0.1402516 0.018857,0.2450579 0.00341,0.1032655 0.00511,0.2142313 0.00511,0.3329095 v 1.4703775 h 0.1073911 l -2.09e-5,-1.6761414 c 0,-0.3159609 -0.01808,-0.5579416 -0.054253,-0.7259404 C 9.5626836,1.072923 9.5101221,0.98893124 9.4411947,0.98893124 c -0.0377,0 -0.074438,0.0315919 -0.1102338,0.0947839 -0.035796,0.063192 -0.070446,0.1510415 -0.1039594,0.2635547 V 0.04566325 Z M 8.1833907,0.17744052 V 0.62826233 H 8.304472 V 0.17744052 Z m -8.09813,0.0231285 V 3.643004 h 0.30159768 c 0.0590254,0 0.10757891,-0.021573 0.14565993,-0.064722 0.0384619,-0.043155 0.0736976,-0.1156068 0.10568572,-0.2173282 0.0270371,-0.084771 0.0485374,-0.1926696 0.0645316,-0.3236762 0.015994,-0.1310074 0.0240093,-0.282042 0.0240093,-0.4531226 1.1e-7,-0.2388973 -0.0165746,-0.4361939 -0.0497048,-0.5918626 C 0.64391031,1.8350827 0.59859274,1.7325916 0.54109031,1.684812 V 1.666316 c 0.034273,-0.069356 0.0616807,-0.1610644 0.0822445,-0.2751186 0.0205639,-0.1155956 0.0308553,-0.2550853 0.0308553,-0.4184602 0,-0.14487978 -0.007034,-0.26893843 -0.0211255,-0.37220365 C 0.6189754,0.49572722 0.5963045,0.41018654 0.56507835,0.34391169 0.53689836,0.28534317 0.50738244,0.2468253 0.47653669,0.2283302 0.44569095,0.20983408 0.39924612,0.20056923 0.33717406,0.20056923 Z M 0.19835986,0.59126929 H 0.3331734 c 0.0377004,0 0.0693038,0.005406 0.094818,0.016195 0.0255143,0.009247 0.0472235,0.0346732 0.0651215,0.0762873 0.0152327,0.0354494 0.0262748,0.0816825 0.0331294,0.13870968 0.006854,0.0570271 0.0102793,0.12716695 0.0102793,0.21039553 -2.2e-7,0.1001822 -0.003799,0.1872725 -0.0114158,0.2612537 -0.007234,0.07244 -0.0198026,0.1317656 -0.0376998,0.1780041 -0.0178975,0.046238 -0.037332,0.077071 -0.0582765,0.092483 -0.0209439,0.01388 -0.0491248,0.020796 -0.08454,0.020796 H 0.19836081 Z M 1.143717,0.98893191 C 1.0508,0.98893191 0.97577798,1.1130204 0.9186561,1.3611654 0.8619153,1.6093105 0.833547,1.9445177 0.833547,2.3668263 c 0,0.4269327 0.0297047,0.7567629 0.0891109,0.9894952 0.0594063,0.2311918 0.1420474,0.3468045 0.2479127,0.3468045 0.041508,0 0.081108,-0.020814 0.118807,-0.06242 C 1.3270786,3.59909 1.3640246,3.54745 1.4002013,3.485799 V 3.0118478 h -0.00572 c -0.018663,0.067816 -0.050076,0.1371954 -0.094249,0.2080943 -0.043793,0.069357 -0.087399,0.1040172 -0.130812,0.1040172 -0.032749,0 -0.062828,-0.018506 -0.090248,-0.055491 C 1.0521376,3.2314795 1.0287167,3.1760112 1.0089148,3.1020299 0.98835053,3.0265074 0.97215224,2.9301823 0.96034749,2.8130463 0.94854313,2.694369 0.94263564,2.555638 0.94263564,2.3968869 H 1.4127658 l -2.13e-5,-0.2358243 c 0,-0.3745295 -0.02342,-0.6635033 -0.070261,-0.8669514 C 1.2960262,1.0906632 1.2297702,0.98893178 1.1437072,0.98893178 Z m 2.1255056,0 c -0.0377,0 -0.07446,0.0315919 -0.1102561,0.0947839 -0.035794,0.063192 -0.070446,0.1510415 -0.1039594,0.2635547 V 1.0605875 H 2.9476165 V 3.643004 H 3.0550068 V 1.7148723 c 0.029322,-0.090936 0.059985,-0.1656922 0.091975,-0.2242607 0.03199,-0.058568 0.062632,-0.087851 0.091953,-0.087851 0.02856,0 0.051793,0.01619 0.06969,0.048557 0.017907,0.030826 0.031611,0.078609 0.041133,0.1433414 0.00914,0.058568 0.015424,0.1402516 0.018857,0.2450579 0.00342,0.1032655 0.00514,0.2142313 0.00514,0.3329095 v 1.4703775 h 0.107399 V 1.9668626 c 0,-0.3159609 -0.018101,-0.5579417 -0.054276,-0.7259404 C 3.3906916,1.0729235 3.3381516,0.98893167 3.2692226,0.98893191 Z m 1.412602,0 c -0.092918,0 -0.1679403,0.12408849 -0.2250612,0.37223349 -0.056741,0.2481451 -0.085109,0.5833523 -0.085109,1.0056609 0,0.4269327 0.029704,0.7567629 0.08911,0.9894952 0.059406,0.2311918 0.1420458,0.3468045 0.2479125,0.3468045 0.041507,0 0.081109,-0.020814 0.1188069,-0.06242 C 4.8651848,3.59909 4.9021318,3.54745 4.9383066,3.485799 V 3.0118478 h -0.00571 c -0.01866,0.067816 -0.050074,0.1371954 -0.094247,0.2080943 -0.043794,0.069357 -0.087398,0.1040172 -0.1308131,0.1040172 -0.032751,0 -0.062828,-0.018506 -0.090248,-0.055491 C 4.5902424,3.2314795 4.5668214,3.1760112 4.5470187,3.1020299 4.5264569,3.0265074 4.5102576,2.9301823 4.4984509,2.8130463 4.4866489,2.694369 4.4807586,2.555638 4.4807586,2.3968869 h 0.4701241 l -2.13e-5,-0.2358243 c 0,-0.3745295 -0.023398,-0.6635033 -0.070239,-0.8669514 C 4.8341648,1.0906632 4.7678892,0.98893178 4.6818246,0.98893191 Z m 2.7258577,0 c -0.090253,0 -0.1620391,0.12253949 -0.2153514,0.36760189 -0.052934,0.2435211 -0.079401,0.57566 -0.079401,0.9964276 0,0.4207676 0.02647,0.7529065 0.079401,0.9964277 0.053314,0.2435197 0.1251004,0.3653012 0.2153514,0.3653012 0.089489,0 0.1608805,-0.121779 0.2141929,-0.3653012 0.053311,-0.2435224 0.079971,-0.5756601 0.079971,-0.9964277 0,-0.4207676 -0.026656,-0.7529065 -0.079971,-0.9964276 C 7.5685605,1.1114714 7.4971714,0.98893191 7.4076823,0.98893191 Z m 2.7172657,0 c -0.09292,0 -0.1679413,0.12408849 -0.2250619,0.37223349 -0.056741,0.2481451 -0.085109,0.5833523 -0.085109,1.0056609 0,0.4269327 0.029682,0.7567629 0.08909,0.9894952 0.059406,0.2311918 0.1420469,0.3468045 0.2479129,0.3468045 0.04151,0 0.08113,-0.020814 0.118829,-0.06242 0.0377,-0.041616 0.07463,-0.093256 0.110803,-0.154907 V 3.0118478 h -0.0056 c -0.01866,0.067816 -0.0501,0.1371954 -0.09428,0.2080943 -0.04379,0.069357 -0.08738,0.1040172 -0.130791,0.1040172 -0.03276,0 -0.06285,-0.018506 -0.09027,-0.055491 C 10.03335,3.2314795 10.009929,3.1760112 9.9901263,3.1020299 9.9695643,3.0265074 9.9533865,2.9301823 9.9415801,2.8130463 9.9297779,2.694369 9.923866,2.555638 9.923866,2.3968869 h 0.470109 V 2.1610626 c 0,-0.3745295 -0.02341,-0.6635033 -0.07026,-0.8669514 C 10.277259,1.0906632 10.211,0.98893178 10.124938,0.98893178 Z m -7.6635102,0.009262 c -0.037878,4.2672e-4 -0.076326,0.0142854 -0.1153099,0.041595 -0.039603,0.027744 -0.069873,0.053168 -0.090815,0.076287 v 0.4415888 h 0.00571 c 0.036937,-0.057026 0.072738,-0.1001918 0.1073895,-0.1294768 0.034653,-0.030825 0.06607,-0.046227 0.094248,-0.046227 0.023228,0 0.045502,0.00616 0.066828,0.018496 0.021318,0.012331 0.039611,0.036206 0.054846,0.071656 0.015987,0.036991 0.028184,0.087871 0.036563,0.1526045 0.00875,0.064734 0.013132,0.1464163 0.013132,0.2450582 v 0.067054 c -0.062452,0.012333 -0.1209223,0.030801 -0.1753775,0.05546 -0.054457,0.024662 -0.1011118,0.071682 -0.1399511,0.1410412 -0.038461,0.069356 -0.068165,0.1649233 -0.08911,0.2866829 -0.020562,0.1202188 -0.030835,0.2781786 -0.030835,0.4739202 0,0.2388983 0.020001,0.435434 0.059982,0.5895612 0.039984,0.1541278 0.088725,0.2311946 0.1462288,0.2311946 0.031228,0 0.058446,-0.012318 0.081677,-0.036995 0.023228,-0.02312 0.043791,-0.052403 0.061688,-0.087851 0.015233,-0.027733 0.030846,-0.064742 0.046839,-0.1109788 0.016376,-0.047779 0.029337,-0.084778 0.038858,-0.1109788 V 3.6430072 H 2.7408309 V 1.8905755 c 0,-0.1664576 -0.00627,-0.3059473 -0.018857,-0.4184603 C 2.7094154,1.3596018 2.6911409,1.2678948 2.6671507,1.1969965 2.6427784,1.1245565 2.6138268,1.0737056 2.5803165,1.0444218 2.5471851,1.0135961 2.50815,0.99819496 2.463216,0.99819496 c -6.008e-4,0 -0.00119,-6.78e-6 -0.00178,0 z m 3.2799172,0 c -0.03788,4.2672e-4 -0.076303,0.0142854 -0.1152892,0.041595 -0.039605,0.027744 -0.069894,0.053168 -0.090837,0.076287 v 0.4415888 h 0.00571 c 0.036934,-0.057026 0.072733,-0.1001933 0.1073879,-0.1294768 0.034653,-0.030825 0.066069,-0.046227 0.094248,-0.046227 0.023228,0 0.045502,0.00616 0.066826,0.018496 0.021318,0.012331 0.039611,0.036206 0.054845,0.071656 0.015987,0.03699 0.028184,0.087871 0.036562,0.1526045 0.00875,0.064734 0.013132,0.1464164 0.013132,0.2450582 v 0.067054 c -0.062452,0.012333 -0.1209206,0.030801 -0.175377,0.05546 -0.054457,0.024662 -0.1010879,0.071684 -0.139932,0.1410412 -0.038461,0.069356 -0.068165,0.1649222 -0.089109,0.2866828 -0.020562,0.1202188 -0.030855,0.2781786 -0.030855,0.4739202 0,0.2388985 0.020001,0.4354341 0.05998,0.5895613 0.039984,0.1541277 0.088725,0.2311945 0.1462288,0.2311945 0.031228,0 0.058446,-0.012318 0.081677,-0.036995 0.023229,-0.02312 0.043791,-0.052403 0.061688,-0.08785 0.015233,-0.027733 0.030849,-0.064743 0.046843,-0.1109789 0.016375,-0.047779 0.029338,-0.084778 0.038857,-0.1109788 V 3.6430075 H 6.020747 l 2.12e-5,-1.7524287 c 0,-0.1664573 -0.00627,-0.3059472 -0.018857,-0.4184603 C 5.9893563,1.3596052 5.971058,1.267898 5.9470646,1.1969997 5.9226923,1.1245598 5.8937412,1.0737089 5.8602299,1.044425 5.8270991,1.0135998 5.7880636,0.99819825 5.7431294,0.99819825 c -6.008e-4,0 -0.00119,-6.8e-6 -0.00178,0 z m 1.074526,0.002297 c -0.094061,0 -0.1698345,0.1202308 -0.2273357,0.3606693 -0.057122,0.2404386 -0.085677,0.5717879 -0.085677,0.9940969 0,0.2265673 0.00761,0.4246232 0.022851,0.5941628 0.015233,0.1695413 0.036754,0.3098194 0.064555,0.4207911 0.02742,0.11097 0.060359,0.1941745 0.098818,0.2496599 0.03846,0.053944 0.080731,0.080921 0.1268099,0.080921 0.036178,0 0.070244,-0.019267 0.1022323,-0.057793 0.032369,-0.038533 0.066457,-0.09248 0.1022547,-0.1618373 V 3.0026144 h -0.00571 c -0.00801,0.026186 -0.018857,0.057792 -0.032562,0.094784 -0.013705,0.035451 -0.028363,0.069352 -0.043976,0.101717 -0.017907,0.036989 -0.038086,0.067063 -0.06055,0.090183 -0.022467,0.02312 -0.044554,0.034663 -0.066258,0.034663 -0.062454,0 -0.1110074,-0.083231 -0.1456605,-0.2496906 -0.034274,-0.168 -0.051412,-0.4076709 -0.051412,-0.7190082 0,-0.3205848 0.01752,-0.563325 0.052549,-0.7282413 0.035414,-0.1664574 0.083592,-0.2496895 0.1445241,-0.2496895 0.033133,0 0.067032,0.027733 0.1016848,0.08322 0.035035,0.055487 0.068915,0.1348588 0.1016625,0.2381255 h 0.00571 V 1.2154931 C 6.9910665,1.1553835 6.9586902,1.1045327 6.9232738,1.0629184 6.8882379,1.0213041 6.8524395,1.000496 6.8158821,1.0004949 Z m 1.9615643,0 c -0.094059,0 -0.1698323,0.1202308 -0.2273353,0.3606693 -0.05712,0.2404386 -0.085677,0.5717879 -0.085677,0.9940969 0,0.2265673 0.00759,0.4246232 0.022828,0.5941628 0.015233,0.1695413 0.036754,0.3098194 0.064553,0.4207911 0.02742,0.11097 0.060359,0.1941745 0.098818,0.2496599 0.03846,0.053944 0.080732,0.080921 0.12681,0.080921 0.036176,0 0.070263,-0.019267 0.102253,-0.057793 0.032369,-0.038533 0.066455,-0.09248 0.1022515,-0.1618373 V 3.0026144 h -0.00571 c -0.00801,0.026186 -0.018857,0.057792 -0.032562,0.094784 -0.013705,0.035451 -0.028361,0.069352 -0.043976,0.101717 -0.017907,0.036989 -0.038086,0.067063 -0.06055,0.090183 -0.022467,0.02312 -0.044554,0.034663 -0.066258,0.034663 -0.062456,0 -0.1110059,-0.083231 -0.1456606,-0.2496906 -0.034274,-0.168 -0.051412,-0.4076709 -0.051412,-0.7190082 0,-0.3205848 0.01752,-0.563325 0.052549,-0.7282413 0.035412,-0.1664574 0.083592,-0.2496895 0.1445241,-0.2496895 0.033133,0 0.06703,0.027733 0.1016848,0.08322 0.035037,0.055487 0.068915,0.1348588 0.1016625,0.2381255 h 0.00571 V 1.2154931 C 8.9526262,1.1553835 8.9202511,1.1045327 8.8848338,1.0629184 8.8497986,1.021304 8.8139992,1.000496 8.7774429,1.000496 Z M 1.5047287,1.0605853 1.761213,3.643002 H 1.8691724 L 2.1273636,1.0605853 H 2.0148331 L 1.8189,3.115895 1.6212607,1.0605875 Z m 6.6855068,0 V 3.643002 H 8.2976266 V 1.0605853 Z m -7.0522261,0.286685 c 0.057121,0 0.09958,0.062424 0.1273793,0.1872673 0.028181,0.1248439 0.042458,0.3013313 0.042839,0.5294398 H 0.94266582 c 0.00457,-0.203448 0.0237949,-0.37377 0.0576869,-0.5109433 0.034273,-0.1371731 0.080154,-0.2057636 0.1376567,-0.2057638 z m 3.5381074,0 c 0.05712,0 0.099581,0.062424 0.1273797,0.1872673 0.028181,0.1248439 0.042457,0.3013313 0.042839,0.5294398 H 4.4807732 c 0.00457,-0.203448 0.023795,-0.37377 0.057687,-0.5109433 0.034274,-0.1371731 0.080154,-0.2057636 0.1376566,-0.2057638 z m 5.4431222,0 c 0.05712,0 0.09958,0.062424 0.12738,0.1872673 0.02817,0.1248439 0.04245,0.3013313 0.04284,0.5294398 H 9.9238759 C 9.9284441,1.8605291 9.9476703,1.6902073 9.9815626,1.5530341 10.015837,1.415861 10.061737,1.3472705 10.119239,1.3472703 Z m -2.7129258,0.016195 c 4.535e-4,-1e-5 9.138e-4,0 0.00137,0 0.057504,0 0.102425,0.081683 0.1347924,0.2450583 0.032367,0.1618337 0.048568,0.4099807 0.048568,0.744437 h -2.1e-5 c 0,0.3267496 -0.016376,0.5733477 -0.049115,0.7398056 -0.032369,0.1649173 -0.077102,0.2473898 -0.1342225,0.2473898 -0.057883,0 -0.1030139,-0.083231 -0.1353813,-0.2496907 -0.032369,-0.1679997 -0.048568,-0.4138372 -0.048568,-0.7375047 0,-0.3344563 0.01601,-0.5826035 0.047998,-0.744437 0.032116,-0.1620987 0.076972,-0.2437918 0.1345826,-0.2450583 z m -3.4621813,0.023129 c 4.684e-4,-1.04e-5 9.408e-4,0 0.00141,0 0.027037,0 0.051982,0.00999 0.074829,0.030032 0.022849,0.020036 0.048732,0.056276 0.077676,0.1086793 v 1.481942 c -0.027037,0.086309 -0.056178,0.1571795 -0.087404,0.2126676 -0.031228,0.053947 -0.062058,0.080921 -0.092523,0.080921 -0.057122,0 -0.09864,-0.079375 -0.1245354,-0.2381251 -0.0259,-0.1602941 -0.038839,-0.3937989 -0.038839,-0.7005124 0,-0.3113372 0.016764,-0.5517687 0.050273,-0.7213087 0.033249,-0.1682157 0.079619,-0.2529773 0.1391107,-0.2542913 z m -3.74577207,0.5849 h 0.17765199 c 0.0373192,0 0.0689226,0.00616 0.094818,0.018497 0.0262761,0.010786 0.0485487,0.035455 0.0668276,0.073987 0.0270376,0.057026 0.045699,0.1263778 0.0559809,0.2080646 0.0102777,0.081687 0.0154157,0.191894 0.0154157,0.3306086 2e-7,0.1217571 -0.004945,0.2211522 -0.0148475,0.2982173 -0.0099,0.077065 -0.025515,0.1456531 -0.0468402,0.2057625 -0.0201822,0.055486 -0.0460668,0.094033 -0.0776742,0.1156113 -0.0316071,0.020027 -0.0721657,0.030062 -0.12167127,0.030062 H 0.19835964 Z M 2.634035,2.2882379 v 0.719008 c -0.026658,0.08323 -0.055608,0.1548874 -0.086834,0.2149967 -0.031228,0.058567 -0.065688,0.08785 -0.1033912,0.08785 -0.045317,0 -0.079028,-0.036998 -0.1011149,-0.1109788 -0.022085,-0.075522 -0.03313,-0.1872496 -0.03313,-0.3352104 0,-0.1310073 0.00953,-0.2335292 0.028579,-0.3075102 0.01903,-0.075522 0.043963,-0.1309897 0.074809,-0.1664398 0.025897,-0.029284 0.060943,-0.051641 0.1051165,-0.067054 0.044555,-0.015414 0.083215,-0.026955 0.115964,-0.034661 z m 3.2799174,0 v 0.719008 c -0.026658,0.08323 -0.05561,0.1548874 -0.086836,0.2149967 -0.031228,0.058567 -0.065688,0.08785 -0.1033911,0.08785 -0.045316,0 -0.079008,-0.036998 -0.1010942,-0.1109788 -0.022085,-0.075522 -0.03313,-0.1872498 -0.03313,-0.3352105 0,-0.1310073 0.00952,-0.2335292 0.028559,-0.3075102 0.019029,-0.075522 0.043985,-0.1309898 0.074829,-0.1664398 0.025897,-0.029285 0.060921,-0.051641 0.1050959,-0.067054 C 5.84254,2.3074853 5.8812,2.2959443 5.913949,2.2882363 Z" />
  </g>
</svg>
