<svg width="11in" height="17in" viewBox="0 0 11.5 17.773" xml:space="preserve" xmlns:xlink="http://www.w3.org/1999/xlink" xmlns="http://www.w3.org/2000/svg"><defs><path id="a" d="M.273.531c3.752 16.271 13.113 24.406 28.082 24.406 14.97 0 24.333-8.135 28.089-24.406H.274Z"/></defs><path style="font-weight:700;font-size:.406566px;-inkscape-font-specification:'sans-serif Bold';text-align:center;text-anchor:middle;fill:maroon;stroke-width:.0163669" d="M3.408 2.605v.119h.077v-.12Zm-.312.029v.65h.132c.022 0 .04-.004.055-.013a.116.116 0 0 0 .04-.04.201.201 0 0 0 .023-.062.36.36 0 0 0-.008-.19c-.012-.026-.027-.043-.047-.051v-.004a.131.131 0 0 0 .033-.056.273.273 0 0 0 .011-.083.274.274 0 0 0-.008-.072.117.117 0 0 0-.026-.05.08.08 0 0 0-.034-.024.198.198 0 0 0-.054-.005Zm.077.119H3.216c.009.001.016.004.022.008.006.005.01.013.013.024a.188.188 0 0 1 0 .07.048.048 0 0 1-.013.025.033.033 0 0 1-.02.01.324.324 0 0 1-.032 0h-.013zm.884.027a.236.236 0 0 0-.087.024v.118h.007a.365.365 0 0 1 .03-.02.07.07 0 0 1 .038-.015c.02 0 .036.006.046.016.01.01.016.029.016.056v.003a.434.434 0 0 0-.063.012.115.115 0 0 0-.05.028.128.128 0 0 0-.032.053.286.286 0 0 0-.012.088c0 .045.008.082.022.11.015.03.033.044.055.044.01 0 .018-.002.026-.005a.072.072 0 0 0 .022-.016 1.21 1.21 0 0 0 .031-.045v.053h.073V2.95a.234.234 0 0 0-.028-.129c-.018-.028-.049-.041-.09-.041h-.004zm-.357.012c-.01 0-.02.005-.032.015a.205.205 0 0 0-.042.059v-.072h-.074v.49h.074v-.329a.081.081 0 0 1 .071-.017.036.036 0 0 1 .015.005h.006v-.15a.1.1 0 0 0-.017-.002H3.7zm.208 0c-.01 0-.02.005-.032.015a.205.205 0 0 0-.043.059v-.072H3.76v.49h.073v-.329a.081.081 0 0 1 .071-.017.036.036 0 0 1 .015.005h.007v-.15a.1.1 0 0 0-.017-.002h-.001zm-.498.002v.49h.073v-.49Zm-.237.209H3.224c.01 0 .02.002.025.006a.045.045 0 0 1 .02.025.153.153 0 0 1 .005.048.17.17 0 0 1-.005.042.056.056 0 0 1-.016.029.04.04 0 0 1-.027.011h-.053zm.933.05v.103a.087.087 0 0 1-.02.025.034.034 0 0 1-.022.01.04.04 0 0 1-.02-.004.036.036 0 0 1-.012-.013.05.05 0 0 1-.006-.019.205.205 0 0 1-.001-.024.1.1 0 0 1 .006-.038.047.047 0 0 1 .017-.021.085.085 0 0 1 .026-.01.345.345 0 0 1 .032-.008zm-1.296.65v.18a.104.104 0 0 0-.025-.02.048.048 0 0 0-.06.008.127.127 0 0 0-.028.043.337.337 0 0 0-.02.07.573.573 0 0 0-.006.095c0 .068.007.121.02.16.014.038.033.057.056.057a.048.048 0 0 0 .033-.014c.01-.01.02-.024.03-.041v.044h.033v-.583Zm2.024.014c-.02 0-.036.014-.047.04a.35.35 0 0 0-.016.125c0 .056.005.097.016.125.01.027.027.04.048.04.02 0 .037-.013.048-.04a.35.35 0 0 0 .016-.125.356.356 0 0 0-.016-.124c-.011-.027-.027-.04-.048-.04h-.001zm-2.666 0c-.042.001-.075.027-.099.078a.502.502 0 0 0-.036.21c0 .05.003.092.01.128a.342.342 0 0 0 .028.09.14.14 0 0 0 .043.055.094.094 0 0 0 .055.017.094.094 0 0 0 .05-.015.268.268 0 0 0 .046-.037v-.239H2.16v.066h.07v.136a.105.105 0 0 1-.03.018.084.084 0 0 1-.033.007c-.03 0-.055-.02-.072-.06a.428.428 0 0 1-.027-.168c0-.068.008-.122.025-.162.017-.04.04-.06.07-.06.012 0 .024.002.034.008.01.005.02.01.028.019a.42.42 0 0 1 .036.048h.003v-.088a.187.187 0 0 0-.05-.039.1.1 0 0 0-.045-.012h-.002zm1.14.007v.073h.038v-.073zm.99.004-.125.314v.086h.124v.157h.034v-.157h.038v-.06h-.038v-.34Zm.263 0v.287a.26.26 0 0 1 .024-.01.099.099 0 0 1 .03-.004c.01 0 .02.002.03.006a.05.05 0 0 1 .021.02c.006.008.01.018.013.032a.3.3 0 0 1 0 .1.147.147 0 0 1-.01.039.062.062 0 0 1-.022.026.043.043 0 0 1-.024.008.066.066 0 0 1-.037-.014.151.151 0 0 1-.034-.033H4.55v.079a.12.12 0 0 0 .033.023c.013.006.027.01.041.01a.062.062 0 0 0 .04-.015.115.115 0 0 0 .03-.04.246.246 0 0 0 .019-.06.404.404 0 0 0-.001-.156.16.16 0 0 0-.022-.053.075.075 0 0 0-.03-.027.083.083 0 0 0-.036-.008.146.146 0 0 0-.03.003v-.148h.123v-.065zm.43 0-.136.557h.029l.136-.557Zm-.157.039h.001c.012 0 .02.008.025.025a.347.347 0 0 1 .008.09.352.352 0 0 1-.008.09c-.005.017-.013.026-.025.026-.012 0-.02-.009-.026-.025a.356.356 0 0 1-.007-.09c0-.044.002-.074.007-.09.005-.017.014-.026.025-.026zm-.537.05v.251h-.1Zm-.364.038c-.028 0-.051.02-.068.06a.418.418 0 0 0-.026.163c0 .07.009.123.027.16.018.038.043.056.076.056a.071.071 0 0 0 .036-.01.206.206 0 0 0 .034-.025v-.077H4.01a.117.117 0 0 1-.029.034.063.063 0 0 1-.04.017.047.047 0 0 1-.027-.009.073.073 0 0 1-.022-.027.174.174 0 0 1-.015-.047.368.368 0 0 1-.005-.067h.144v-.038a.363.363 0 0 0-.022-.14c-.014-.033-.034-.05-.06-.05h-.001zm-.45 0c-.027.001-.048.02-.064.06a.435.435 0 0 0-.024.16c0 .069.008.123.024.162.016.04.038.06.066.06.027 0 .05-.02.066-.06a.432.432 0 0 0 .024-.161.432.432 0 0 0-.024-.161c-.017-.04-.039-.06-.066-.06h-.002zm.24 0a.05.05 0 0 0-.032.015.177.177 0 0 0-.032.043v-.046h-.033v.418h.033v-.312a.183.183 0 0 1 .028-.037c.01-.01.02-.014.028-.014a.03.03 0 0 1 .021.008c.006.005.01.013.013.023.003.01.005.023.006.04a.87.87 0 0 1 .001.054v.238h.033v-.272a.324.324 0 0 0-.016-.117c-.012-.027-.028-.04-.049-.04zm-1.19.002a.104.104 0 0 0-.033.006.185.185 0 0 0-.028.013v.071h.002a.148.148 0 0 1 .033-.02.069.069 0 0 1 .029-.008.07.07 0 0 1 .02.003.034.034 0 0 1 .017.011.062.062 0 0 1 .011.025c.003.01.004.024.004.04v.01a.42.42 0 0 0-.053.01.093.093 0 0 0-.043.022.11.11 0 0 0-.027.047.256.256 0 0 0-.01.076c0 .039.006.07.018.096.013.025.028.037.045.037a.05.05 0 0 0 .025-.006.073.073 0 0 0 .02-.014.105.105 0 0 0 .013-.018.86.86 0 0 1 .012-.018v.045h.033V4a.335.335 0 0 0-.006-.068.134.134 0 0 0-.017-.044.064.064 0 0 0-.026-.025.08.08 0 0 0-.036-.007h-.003zm.438 0a.104.104 0 0 0-.033.006.185.185 0 0 0-.028.013v.071h.002a.148.148 0 0 1 .033-.02.069.069 0 0 1 .029-.008.07.07 0 0 1 .02.003.034.034 0 0 1 .017.011.062.062 0 0 1 .011.025c.003.01.004.024.004.04v.01a.42.42 0 0 0-.053.01.093.093 0 0 0-.043.022.11.11 0 0 0-.027.047.256.256 0 0 0-.01.076c0 .039.006.07.019.096.012.025.027.037.044.037a.05.05 0 0 0 .025-.006.073.073 0 0 0 .02-.014.105.105 0 0 0 .013-.018.82.82 0 0 1 .012-.018v.045h.033V4a.335.335 0 0 0-.006-.068.134.134 0 0 0-.017-.044.064.064 0 0 0-.026-.025.08.08 0 0 0-.036-.007h-.003zm-.648.01v.418h.033v-.297a.178.178 0 0 1 .027-.037c.01-.01.02-.015.03-.015a.062.062 0 0 1 .03.007h.002v-.072a.097.097 0 0 0-.012-.003.045.045 0 0 0-.043.013.216.216 0 0 0-.034.047v-.061zm.786 0v.058h.111l-.114.308v.052h.158v-.06h-.117l.114-.308v-.05zm.202 0v.418h.033v-.418Zm.62.046c.018 0 .031.01.04.03.008.02.013.05.013.086h-.112a.217.217 0 0 1 .018-.083c.01-.021.023-.032.04-.033zm-.447.003h.001c.018 0 .031.013.041.04.01.026.015.066.015.12a.362.362 0 0 1-.015.12c-.01.026-.024.04-.041.04-.018 0-.032-.014-.041-.04a.367.367 0 0 1-.015-.12c0-.054.005-.094.014-.12.01-.026.024-.04.04-.04zm-.722.003h.001c.008 0 .016.002.023.005l.024.018v.24a.156.156 0 0 1-.027.034c-.01.009-.019.013-.028.013-.018 0-.03-.013-.038-.038a.41.41 0 0 1-.012-.114c0-.05.005-.089.015-.116.01-.027.024-.04.042-.042zm2.276.046c-.02 0-.035.014-.046.04a.354.354 0 0 0-.017.125c0 .056.006.097.017.124.01.028.026.041.047.041s.037-.013.048-.04a.35.35 0 0 0 .017-.125.356.356 0 0 0-.016-.124c-.011-.027-.027-.04-.049-.04h-.001zm0 .05h.002c.011 0 .02.008.025.025a.347.347 0 0 1 .008.09.352.352 0 0 1-.008.09c-.005.017-.014.026-.025.026-.012 0-.02-.009-.026-.025a.356.356 0 0 1-.008-.09c0-.044.003-.074.008-.09.005-.017.013-.026.025-.026zm-2.45.05v.117a.19.19 0 0 1-.026.034.044.044 0 0 1-.032.015.033.033 0 0 1-.03-.018.115.115 0 0 1-.011-.054c0-.022.003-.038.009-.05a.061.061 0 0 1 .023-.027.098.098 0 0 1 .032-.011.679.679 0 0 1 .035-.006zm.438 0v.117A.19.19 0 0 1 3 4.216a.044.044 0 0 1-.032.015.033.033 0 0 1-.03-.018.115.115 0 0 1-.01-.055c0-.02.002-.037.008-.05a.061.061 0 0 1 .023-.026.098.098 0 0 1 .032-.011.679.679 0 0 1 .035-.006zm1.417.113-.03.245h.025l.05-.245Zm-3.35.482a.871.871 0 0 0-.048.166c-.012.06-.017.127-.017.202 0 .075.005.143.017.203.011.06.027.115.048.166h.04v-.004a.518.518 0 0 1-.051-.146 1.014 1.014 0 0 1 0-.437.75.75 0 0 1 .05-.146V4.66zm.098 0v.582h.03l.003-.019c.008.01.016.017.024.022a.05.05 0 0 0 .03.009.046.046 0 0 0 .032-.015.14.14 0 0 0 .027-.044.323.323 0 0 0 .019-.07.575.575 0 0 0 .007-.095.502.502 0 0 0-.02-.16c-.014-.038-.032-.057-.055-.057a.048.048 0 0 0-.035.016.18.18 0 0 0-.03.04V4.66Zm.694 0v.582h.033V4.93a.183.183 0 0 1 .028-.036c.01-.01.02-.014.028-.014a.03.03 0 0 1 .022.008c.005.005.01.012.012.023.003.01.005.023.006.04a.87.87 0 0 1 .002.053v.238h.032v-.27a.324.324 0 0 0-.016-.118c-.011-.027-.027-.041-.048-.041a.05.05 0 0 0-.034.015.177.177 0 0 0-.032.043v-.21Zm1.156 0v.181a.104.104 0 0 0-.025-.021.048.048 0 0 0-.06.008.127.127 0 0 0-.028.043.337.337 0 0 0-.02.071.573.573 0 0 0-.006.095c0 .068.006.121.02.16.014.038.032.057.056.057a.048.048 0 0 0 .033-.015c.01-.01.02-.023.03-.04v.043h.032V4.66Zm.321 0v.582h.03l.003-.019c.008.01.016.017.024.022a.05.05 0 0 0 .03.009.046.046 0 0 0 .032-.015.14.14 0 0 0 .027-.044.323.323 0 0 0 .019-.07.575.575 0 0 0 .007-.095.502.502 0 0 0-.02-.16c-.013-.038-.032-.057-.055-.057a.048.048 0 0 0-.035.016.18.18 0 0 0-.029.04V4.66Zm1.087 0v.181a.104.104 0 0 0-.025-.021.048.048 0 0 0-.06.008.127.127 0 0 0-.028.043.337.337 0 0 0-.019.071.573.573 0 0 0-.007.095c0 .068.007.121.02.16.014.038.033.057.056.057a.048.048 0 0 0 .033-.015c.01-.01.02-.023.03-.04v.043h.033V4.66Zm1.596 0v.582h.032V4.66Zm.09 0v.004a.718.718 0 0 1 .068.248 1.005 1.005 0 0 1-.04.418.518.518 0 0 1-.027.063v.004h.04a.872.872 0 0 0 .048-.166c.011-.06.017-.128.017-.203 0-.075-.006-.142-.017-.202a.871.871 0 0 0-.048-.166Zm-1.17.014a.085.085 0 0 0-.04.011.126.126 0 0 0-.033.024v.078h.002a.144.144 0 0 1 .035-.036.063.063 0 0 1 .035-.013c.007 0 .014.002.02.004A.042.042 0 0 1 5 4.756a.073.073 0 0 1 .01.025c.003.01.005.021.005.035 0 .03-.005.054-.016.07a.049.049 0 0 1-.042.023h-.013v.062h.016c.009 0 .017.002.024.005a.04.04 0 0 1 .02.015c.005.008.009.018.011.031a.26.26 0 0 1 0 .1.145.145 0 0 1-.01.036.057.057 0 0 1-.021.023.044.044 0 0 1-.023.008.069.069 0 0 1-.04-.014.14.14 0 0 1-.034-.034h-.003v.078c.01.009.02.017.035.024a.09.09 0 0 0 .042.011.066.066 0 0 0 .04-.012.103.103 0 0 0 .03-.04.225.225 0 0 0 .018-.055.352.352 0 0 0 .001-.132.166.166 0 0 0-.013-.04.08.08 0 0 0-.019-.024.062.062 0 0 0-.02-.013v-.005c.015-.006.027-.02.037-.044a.243.243 0 0 0 .009-.14.131.131 0 0 0-.02-.044A.075.075 0 0 0 5 4.681a.072.072 0 0 0-.034-.007zm.227 0a.085.085 0 0 0-.04.011.126.126 0 0 0-.033.024v.078h.002a.144.144 0 0 1 .035-.036.063.063 0 0 1 .036-.013c.007 0 .013.002.02.004a.042.042 0 0 1 .015.014.073.073 0 0 1 .011.025c.003.01.004.021.004.035 0 .03-.005.054-.015.07a.049.049 0 0 1-.043.023h-.012v.062h.016c.008 0 .016.002.024.005a.04.04 0 0 1 .019.015c.005.008.01.018.012.031a.26.26 0 0 1 0 .1.145.145 0 0 1-.011.036.057.057 0 0 1-.02.023.044.044 0 0 1-.024.008.069.069 0 0 1-.039-.014.14.14 0 0 1-.035-.034h-.002v.078c.009.009.02.017.034.024a.09.09 0 0 0 .043.011.066.066 0 0 0 .039-.012.103.103 0 0 0 .03-.04.225.225 0 0 0 .019-.055.352.352 0 0 0 0-.132.166.166 0 0 0-.013-.04.08.08 0 0 0-.037-.037v-.005c.013-.006.025-.02.036-.044a.243.243 0 0 0 .009-.14.131.131 0 0 0-.02-.044.075.075 0 0 0-.026-.024.072.072 0 0 0-.033-.007zm.23 0c-.03 0-.052.025-.066.071a.804.804 0 0 0-.022.22c0 .098.007.17.022.218.014.047.037.071.068.071.031 0 .054-.023.068-.07a.8.8 0 0 0 .022-.22.808.808 0 0 0-.021-.218c-.015-.048-.038-.072-.069-.072h-.001zm-4.01.008v.073h.037v-.073zm.698 0v.073h.037v-.073zm1.026 0v.073h.037v-.073zm.447 0v.073h.037v-.073zm1.84.054h.001c.011 0 .02.005.027.014.007.01.013.025.017.044.004.02.007.043.008.07a1.86 1.86 0 0 1-.008.27.112.112 0 0 1-.017.044.033.033 0 0 1-.027.014.033.033 0 0 1-.028-.015.122.122 0 0 1-.016-.045.473.473 0 0 1-.008-.07 2.044 2.044 0 0 1 0-.195.472.472 0 0 1 .008-.072.118.118 0 0 1 .017-.045.033.033 0 0 1 .026-.014zm-3.133.077c-.028 0-.05.02-.068.06a.418.418 0 0 0-.026.163c0 .069.01.122.027.16.018.037.044.056.076.056a.071.071 0 0 0 .037-.01.206.206 0 0 0 .033-.025V5.14h-.001a.117.117 0 0 1-.03.034.063.063 0 0 1-.04.017.047.047 0 0 1-.027-.01.073.073 0 0 1-.021-.026.174.174 0 0 1-.015-.047.368.368 0 0 1-.006-.067h.144v-.038a.363.363 0 0 0-.021-.14c-.014-.034-.035-.05-.061-.05zm.366 0c-.028 0-.05.02-.068.06a.418.418 0 0 0-.026.163c0 .069.01.122.027.16.019.037.044.056.076.056a.071.071 0 0 0 .037-.01.206.206 0 0 0 .033-.025V5.14h-.001a.117.117 0 0 1-.03.034.063.063 0 0 1-.04.017.047.047 0 0 1-.027-.01.073.073 0 0 1-.021-.026.174.174 0 0 1-.015-.047.37.37 0 0 1-.006-.067h.144v-.038a.363.363 0 0 0-.021-.14c-.014-.034-.035-.05-.061-.05zm3.135 0a.047.047 0 0 0-.032.015.2.2 0 0 0-.03.043v-.046h-.033v.417h.033V4.93a.22.22 0 0 1 .027-.036c.009-.01.018-.014.027-.014.01 0 .017.003.022.008a.053.053 0 0 1 .011.024 1.067 1.067 0 0 1 .006.092v.238h.033v-.267a.72.72 0 0 0-.001-.043.222.222 0 0 1 .027-.037c.01-.01.019-.015.028-.015.01 0 .017.003.022.008a.056.056 0 0 1 .011.024 1.074 1.074 0 0 1 .006.092v.238h.033v-.27a.348.348 0 0 0-.015-.117c-.01-.028-.026-.042-.048-.042a.05.05 0 0 0-.035.016.224.224 0 0 0-.036.052.122.122 0 0 0-.021-.05.041.041 0 0 0-.034-.018h-.001zm-1.744.001a.103.103 0 0 0-.033.007.187.187 0 0 0-.028.013v.071h.002a.149.149 0 0 1 .032-.02.069.069 0 0 1 .03-.008.07.07 0 0 1 .02.003.034.034 0 0 1 .016.011.062.062 0 0 1 .012.025c.002.01.004.024.004.04v.01a.42.42 0 0 0-.054.01.093.093 0 0 0-.043.022.11.11 0 0 0-.027.047.256.256 0 0 0-.01.076c0 .039.007.07.019.096.012.025.027.037.045.037a.05.05 0 0 0 .025-.006.073.073 0 0 0 .018-.014.105.105 0 0 0 .015-.018.82.82 0 0 1 .012-.018v.044h.032V4.96a.335.335 0 0 0-.005-.068.134.134 0 0 0-.017-.044.063.063 0 0 0-.027-.025.08.08 0 0 0-.036-.008h-.002zm.564 0a.103.103 0 0 0-.034.007.187.187 0 0 0-.027.013v.071h.001a.148.148 0 0 1 .033-.02.069.069 0 0 1 .03-.008.07.07 0 0 1 .02.003.034.034 0 0 1 .016.011.062.062 0 0 1 .012.025c.002.01.004.024.004.04v.01a.42.42 0 0 0-.054.01.093.093 0 0 0-.043.022.11.11 0 0 0-.027.047.256.256 0 0 0-.01.076c0 .039.007.07.019.096.012.025.027.037.044.037a.05.05 0 0 0 .025-.006.073.073 0 0 0 .02-.014.106.106 0 0 0 .014-.018.824.824 0 0 1 .012-.018v.044h.032V4.96a.335.335 0 0 0-.006-.068.134.134 0 0 0-.016-.044.063.063 0 0 0-.027-.025.08.08 0 0 0-.036-.008h-.002zm-3.018 0c-.028.001-.051.02-.069.06a.58.58 0 0 0-.02.257c.006.027.012.05.02.067a.106.106 0 0 0 .031.04.064.064 0 0 0 .039.014.057.057 0 0 0 .031-.01.176.176 0 0 0 .031-.026V5.14h-.001a.207.207 0 0 1-.024.032.071.071 0 0 1-.018.014.042.042 0 0 1-.02.006c-.02 0-.034-.014-.045-.04a.337.337 0 0 1-.016-.117c0-.052.006-.091.016-.118.011-.027.026-.04.045-.04.01 0 .02.004.03.013.011.01.022.022.032.039h.001V4.85a.143.143 0 0 0-.03-.025.061.061 0 0 0-.032-.01zm.187 0c-.029.001-.052.02-.07.06a.58.58 0 0 0-.02.257c.006.027.013.05.021.067a.106.106 0 0 0 .03.04.064.064 0 0 0 .04.014.057.057 0 0 0 .03-.01.176.176 0 0 0 .032-.026V5.14h-.002a.207.207 0 0 1-.023.032.071.071 0 0 1-.019.014.042.042 0 0 1-.02.006c-.02 0-.034-.014-.045-.04a.336.336 0 0 1-.015-.117c0-.052.005-.091.016-.118.01-.027.025-.04.044-.04.01 0 .02.004.031.013.01.01.021.022.031.039h.002V4.85a.143.143 0 0 0-.03-.025.061.061 0 0 0-.033-.01zm-.366.01v.418h.033v-.417Zm.698 0v.418h.033v-.417Zm.311 0v.418h.033v-.296a.178.178 0 0 1 .027-.037c.01-.01.02-.015.03-.015.006 0 .011 0 .016.002a.06.06 0 0 1 .014.005h.002V4.83a.097.097 0 0 0-.012-.003.045.045 0 0 0-.043.013.216.216 0 0 0-.034.047v-.061zm.715 0v.418h.033v-.417Zm.448 0v.418h.032v-.417Zm.097 0v.418h.033v-.296a.178.178 0 0 1 .028-.037c.009-.01.019-.015.029-.015.006 0 .012 0 .016.002l.014.005h.002V4.83a.097.097 0 0 0-.011-.003.045.045 0 0 0-.043.013.216.216 0 0 0-.035.047v-.061zm.153 0v.418h.033v-.296a.178.178 0 0 1 .027-.037c.01-.01.02-.015.03-.015.006 0 .011 0 .016.002a.06.06 0 0 1 .014.005h.002V4.83a.097.097 0 0 0-.012-.003.045.045 0 0 0-.043.013.216.216 0 0 0-.034.047v-.061Zm-1.548.047h.001c.018 0 .03.01.04.03.008.02.012.049.012.086H2.23a.217.217 0 0 1 .018-.083c.01-.021.024-.032.04-.033zm.366 0h.001c.018 0 .03.01.04.03.008.02.012.049.012.086h-.112a.217.217 0 0 1 .018-.083c.01-.021.024-.032.04-.033zm.339.006c.01 0 .017.002.024.005.007.003.015.01.024.018v.24a.156.156 0 0 1-.027.034c-.01.009-.02.013-.029.013-.017 0-.03-.013-.038-.038a.41.41 0 0 1-.012-.114c0-.05.006-.09.016-.117.01-.026.024-.04.042-.04zm1.408 0h.001c.009 0 .016.002.023.005.007.003.015.01.024.018v.24a.156.156 0 0 1-.027.034c-.01.009-.019.013-.028.013-.018 0-.03-.013-.038-.038a.41.41 0 0 1-.012-.114c0-.05.005-.09.015-.117.01-.026.024-.04.042-.04zM1.28 4.88h.001c.017 0 .03.013.037.039a.42.42 0 0 1 .012.113.344.344 0 0 1-.016.12c-.01.026-.024.039-.042.039a.049.049 0 0 1-.023-.005.114.114 0 0 1-.024-.02v-.239a.146.146 0 0 1 .027-.034.044.044 0 0 1 .028-.013zm2.17 0h.002c.017 0 .03.013.038.039a.42.42 0 0 1 .011.113.344.344 0 0 1-.016.12c-.01.026-.024.039-.042.039a.049.049 0 0 1-.023-.005.114.114 0 0 1-.024-.02v-.239a.146.146 0 0 1 .027-.034.044.044 0 0 1 .028-.013zm.653.143v.117a.19.19 0 0 1-.027.034.044.044 0 0 1-.032.015.033.033 0 0 1-.03-.018.115.115 0 0 1-.01-.055c0-.02.002-.037.008-.05a.061.061 0 0 1 .023-.026.098.098 0 0 1 .032-.011.679.679 0 0 1 .036-.006zm.564 0v.117a.19.19 0 0 1-.027.034.044.044 0 0 1-.032.015.033.033 0 0 1-.03-.018.115.115 0 0 1-.01-.055c0-.02.002-.037.008-.05a.061.061 0 0 1 .023-.026.098.098 0 0 1 .032-.011.68.68 0 0 1 .036-.006zM3.463 6.595v.12h.077v-.12Zm-.347.03.11.65h.089l.11-.65h-.08l-.073.456-.074-.456Zm.896.144c-.038 0-.069.024-.09.07a.453.453 0 0 0-.034.19c0 .081.011.145.033.191.022.047.053.07.093.07s.07-.023.092-.07a.453.453 0 0 0 .033-.19.456.456 0 0 0-.033-.191c-.021-.047-.052-.07-.092-.07h-.002zm-.253.002a.057.057 0 0 0-.04.017.248.248 0 0 0-.038.05v-.054h-.073v.49h.073v-.347a.108.108 0 0 1 .022-.022.036.036 0 0 1 .02-.007.03.03 0 0 1 .023.007c.005.005.009.013.012.024a1.207 1.207 0 0 1 .006.103v.243h.074v-.32a.35.35 0 0 0-.021-.138c-.014-.03-.033-.046-.058-.046zm-.294.013v.49h.073v-.49Zm.548.095a.03.03 0 0 1 .02.007.057.057 0 0 1 .016.025.213.213 0 0 1 .01.047.6.6 0 0 1-.01.19.056.056 0 0 1-.016.025.03.03 0 0 1-.04 0 .062.062 0 0 1-.015-.026.206.206 0 0 1-.01-.047.611.611 0 0 1 .011-.19.058.058 0 0 1 .016-.025.031.031 0 0 1 .018-.006zm-1.138.814v.181a.104.104 0 0 0-.025-.021.048.048 0 0 0-.06.008.127.127 0 0 0-.028.043.337.337 0 0 0-.02.071.574.574 0 0 0-.006.095c0 .068.007.121.02.16.014.038.033.057.056.057a.048.048 0 0 0 .033-.015c.01-.01.02-.023.03-.04v.043h.033v-.582Zm1.684.014a.088.088 0 0 0-.04.01.126.126 0 0 0-.032.025v.078h.001a.14.14 0 0 1 .036-.037.065.065 0 0 1 .035-.012c.016 0 .028.009.037.025a.141.141 0 0 1 .014.068.306.306 0 0 1-.013.089 1.31 1.31 0 0 1-.08.177l-.037.067v.078h.176v-.064h-.14a14.175 14.175 0 0 0 .076-.144.884.884 0 0 0 .038-.095.341.341 0 0 0 .015-.112.232.232 0 0 0-.022-.112c-.016-.027-.037-.041-.063-.041h-.001zm.21 0c-.02.001-.036.015-.047.042a.35.35 0 0 0-.016.124c0 .056.005.097.016.124.01.028.027.041.048.041.02 0 .036-.013.047-.04a.35.35 0 0 0 .017-.125.356.356 0 0 0-.016-.124c-.011-.027-.027-.041-.048-.041h-.001zm-2.535.001c-.042 0-.075.026-.1.078a.502.502 0 0 0-.036.21.73.73 0 0 0 .01.128.342.342 0 0 0 .028.09.141.141 0 0 0 .043.054.094.094 0 0 0 .056.018.094.094 0 0 0 .048-.015.268.268 0 0 0 .047-.037v-.239h-.104v.065h.07v.137a.106.106 0 0 1-.03.018.084.084 0 0 1-.033.007c-.03 0-.055-.02-.072-.06a.428.428 0 0 1-.027-.168c0-.068.009-.122.025-.162.017-.04.04-.06.07-.06.013 0 .024.002.034.007.01.005.02.012.028.02a.41.41 0 0 1 .036.048h.003v-.089a.187.187 0 0 0-.05-.038.1.1 0 0 0-.045-.012h-.001zm1.14.007v.073h.037v-.073zm.96.001c0 .017-.003.03-.006.04a.067.067 0 0 1-.012.023.042.042 0 0 1-.02.012.084.084 0 0 1-.023.003v.051h.054v.374h-.054v.056h.14V8.22h-.052v-.503Zm.592.002-.136.557h.028l.137-.557Zm-.157.04c.013 0 .02.008.026.025a.347.347 0 0 1 .008.09.352.352 0 0 1-.008.09c-.005.017-.013.025-.025.025-.012 0-.02-.008-.026-.025a.356.356 0 0 1-.007-.09c0-.043.002-.073.007-.09s.014-.025.025-.025zm-1.22.088c-.027 0-.049.02-.065.06a.435.435 0 0 0-.024.16c0 .069.008.122.024.162.017.04.039.059.066.059.028 0 .05-.02.066-.06a.432.432 0 0 0 .024-.16.432.432 0 0 0-.024-.162c-.017-.04-.038-.06-.066-.06H3.55zm.24 0a.05.05 0 0 0-.033.015.177.177 0 0 0-.032.043v-.047H3.69v.418h.033v-.312a.183.183 0 0 1 .028-.036c.01-.01.02-.014.028-.014a.03.03 0 0 1 .021.008c.006.005.01.012.013.023.003.01.005.023.006.04a.87.87 0 0 1 .001.053v.238h.033v-.27a.324.324 0 0 0-.016-.118c-.011-.028-.027-.041-.049-.041zm.208 0c-.028 0-.05.02-.067.06a.418.418 0 0 0-.026.163c0 .069.009.122.027.16.018.037.043.056.076.056a.071.071 0 0 0 .036-.01.206.206 0 0 0 .034-.025v-.077h-.002a.117.117 0 0 1-.028.034.063.063 0 0 1-.04.017.047.047 0 0 1-.028-.01.073.073 0 0 1-.022-.026.174.174 0 0 1-.014-.047.37.37 0 0 1-.006-.067h.144v-.038a.363.363 0 0 0-.022-.14c-.014-.034-.034-.05-.06-.05h-.002zm-1.398.001a.104.104 0 0 0-.034.007.189.189 0 0 0-.027.013v.071h.001a.148.148 0 0 1 .033-.021.069.069 0 0 1 .029-.007.07.07 0 0 1 .02.003.034.034 0 0 1 .017.011.062.062 0 0 1 .011.025c.003.01.004.023.004.04v.01a.424.424 0 0 0-.053.01.093.093 0 0 0-.043.022.11.11 0 0 0-.027.046.256.256 0 0 0-.01.077c0 .039.006.07.019.096.012.024.027.037.044.037a.05.05 0 0 0 .025-.006.073.073 0 0 0 .02-.014.106.106 0 0 0 .014-.018.833.833 0 0 1 .011-.018v.044h.033v-.283a.336.336 0 0 0-.006-.068.134.134 0 0 0-.016-.044.063.063 0 0 0-.027-.025.08.08 0 0 0-.036-.008H2.6zm.438 0a.104.104 0 0 0-.034.007.188.188 0 0 0-.027.013v.071h.001a.148.148 0 0 1 .033-.021.069.069 0 0 1 .029-.007.07.07 0 0 1 .02.003.034.034 0 0 1 .017.011.062.062 0 0 1 .011.025c.003.01.004.023.004.04v.01a.424.424 0 0 0-.053.01.093.093 0 0 0-.043.022.11.11 0 0 0-.027.046.256.256 0 0 0-.01.077c0 .039.006.07.019.096.012.024.027.037.044.037a.05.05 0 0 0 .025-.006.073.073 0 0 0 .02-.014.106.106 0 0 0 .014-.018.833.833 0 0 1 .011-.018v.044h.033v-.283a.335.335 0 0 0-.006-.068.134.134 0 0 0-.016-.044.063.063 0 0 0-.027-.025.08.08 0 0 0-.036-.008h-.002zm-.65.01v.418h.034V7.98a.178.178 0 0 1 .027-.037c.01-.01.02-.015.03-.015.006 0 .011 0 .016.002a.06.06 0 0 1 .014.005h.002v-.072a.097.097 0 0 0-.012-.003.045.045 0 0 0-.043.013.216.216 0 0 0-.034.047v-.062zm.787 0v.06h.111l-.114.306v.052h.158v-.06h-.117l.114-.307v-.05zm.202 0v.418h.033v-.418Zm.62.047c.018 0 .031.01.04.03.009.02.013.049.013.086h-.112a.217.217 0 0 1 .018-.083c.01-.022.024-.033.041-.033zm-.447.002h.001c.018 0 .031.014.041.04.01.026.015.066.015.12a.362.362 0 0 1-.015.12c-.01.027-.023.04-.04.04-.019 0-.032-.013-.042-.04a.367.367 0 0 1-.015-.12c0-.054.005-.094.015-.12.01-.026.023-.04.04-.04zm-.722.004h.001c.008 0 .016.002.023.005.007.003.015.01.024.018v.24a.156.156 0 0 1-.027.034c-.01.009-.019.013-.028.013-.018 0-.03-.013-.038-.039a.41.41 0 0 1-.012-.113c0-.05.005-.09.015-.117.01-.027.024-.04.042-.04zm2.146.046c-.02 0-.035.014-.046.04a.354.354 0 0 0-.017.125c0 .055.006.097.016.124.011.027.027.041.048.041s.037-.013.048-.04a.35.35 0 0 0 .017-.125.356.356 0 0 0-.017-.124c-.01-.028-.026-.041-.048-.041zm.001.05c.012 0 .02.008.026.025a.347.347 0 0 1 .008.09.352.352 0 0 1-.008.09c-.005.017-.014.025-.025.025-.012 0-.02-.008-.026-.025a.356.356 0 0 1-.008-.09c0-.043.003-.073.008-.09s.013-.025.025-.025zm-2.32.05v.116a.19.19 0 0 1-.027.035.044.044 0 0 1-.032.014.033.033 0 0 1-.03-.017.115.115 0 0 1-.01-.055c0-.02.002-.038.008-.05a.061.061 0 0 1 .023-.026.098.098 0 0 1 .032-.011.69.69 0 0 1 .035-.006zm.437 0v.116a.19.19 0 0 1-.026.035.044.044 0 0 1-.032.014.033.033 0 0 1-.03-.017.115.115 0 0 1-.01-.055c0-.02.002-.038.008-.05a.061.061 0 0 1 .023-.026.098.098 0 0 1 .032-.011.69.69 0 0 1 .035-.006zm-1.957.595a.871.871 0 0 0-.049.166c-.01.06-.017.127-.017.202 0 .075.006.143.017.203.012.06.028.115.049.165h.04v-.003a.517.517 0 0 1-.051-.147 1.014 1.014 0 0 1 0-.436.747.747 0 0 1 .05-.146V8.65zm.098 0v.582h.03l.002-.02c.009.01.017.018.025.023a.05.05 0 0 0 .029.009.046.046 0 0 0 .033-.015.14.14 0 0 0 .027-.044.323.323 0 0 0 .018-.07.575.575 0 0 0 .007-.095.502.502 0 0 0-.02-.16c-.013-.038-.031-.057-.054-.057a.048.048 0 0 0-.035.015.18.18 0 0 0-.03.04v-.208Zm.694 0v.582h.033v-.312a.184.184 0 0 1 .028-.036c.01-.01.02-.014.028-.014a.03.03 0 0 1 .021.008c.006.005.01.012.013.023.003.01.005.022.006.04a.87.87 0 0 1 .001.053v.238h.033v-.271a.324.324 0 0 0-.016-.118c-.011-.027-.028-.04-.049-.04a.05.05 0 0 0-.033.015.177.177 0 0 0-.032.043V8.65Zm1.155 0v.181a.104.104 0 0 0-.025-.021.048.048 0 0 0-.06.008.127.127 0 0 0-.027.043.337.337 0 0 0-.02.07.573.573 0 0 0-.007.095c0 .069.007.122.02.16.015.039.033.058.056.058a.048.048 0 0 0 .034-.015c.01-.01.02-.023.03-.04v.043h.032v-.582zm1.327 0v.181a.104.104 0 0 0-.025-.021.048.048 0 0 0-.06.008.127.127 0 0 0-.028.043.337.337 0 0 0-.019.07.573.573 0 0 0-.007.095c0 .069.007.122.02.16.014.039.033.058.056.058a.048.048 0 0 0 .034-.015c.01-.01.02-.023.03-.04v.043h.032v-.582zm1.596 0v.582h.033v-.582Zm.091 0v.004c.01.018.018.04.027.063a.72.72 0 0 1 .041.184 1.005 1.005 0 0 1-.041.418.518.518 0 0 1-.027.064v.003h.04a.871.871 0 0 0 .048-.165c.012-.06.017-.128.017-.203 0-.075-.005-.142-.017-.202a.872.872 0 0 0-.048-.166Zm-.947.014a.088.088 0 0 0-.039.01.126.126 0 0 0-.033.024v.079h.002a.14.14 0 0 1 .036-.037.064.064 0 0 1 .035-.012c.016 0 .028.008.037.025a.141.141 0 0 1 .014.068.306.306 0 0 1-.013.088 1.312 1.312 0 0 1-.08.177l-.037.068v.078h.176V9.17h-.14a14.13 14.13 0 0 0 .076-.144.886.886 0 0 0 .038-.096.341.341 0 0 0 .015-.111.232.232 0 0 0-.023-.112c-.015-.028-.036-.041-.062-.041h-.002zm-3.695.007v.073h.037v-.073zm.698 0v.073h.037v-.073zm1.026 0v.073h.037v-.073zm.436 0v.073h.037v-.073zm1.31.002c0 .016-.002.03-.005.04a.067.067 0 0 1-.012.023.042.042 0 0 1-.02.011.084.084 0 0 1-.023.004v.05h.054v.374h-.054v.057h.14v-.057h-.052v-.502Zm.39.002v.287a.26.26 0 0 1 .025-.009.099.099 0 0 1 .03-.004c.01 0 .02.002.029.006a.05.05 0 0 1 .022.02c.005.007.01.018.012.031a.3.3 0 0 1 0 .1.148.148 0 0 1-.01.04.062.062 0 0 1-.021.026.043.043 0 0 1-.024.007.066.066 0 0 1-.038-.013.151.151 0 0 1-.033-.034h-.003v.08a.12.12 0 0 0 .034.022c.013.007.026.01.04.01a.062.062 0 0 0 .04-.014.115.115 0 0 0 .03-.04.246.246 0 0 0 .019-.06.404.404 0 0 0-.001-.156.16.16 0 0 0-.022-.053.075.075 0 0 0-.029-.027.083.083 0 0 0-.037-.008.147.147 0 0 0-.029.003v-.148h.123v-.066Zm-2.983.128c-.028 0-.05.02-.067.06a.418.418 0 0 0-.026.163c0 .069.009.122.027.16.018.037.044.056.076.056a.071.071 0 0 0 .036-.01.206.206 0 0 0 .034-.025V9.13H2.41a.117.117 0 0 1-.03.034.063.063 0 0 1-.04.017.047.047 0 0 1-.027-.01.073.073 0 0 1-.021-.026.174.174 0 0 1-.015-.047.37.37 0 0 1-.006-.067h.144v-.039a.363.363 0 0 0-.021-.14c-.015-.033-.035-.05-.061-.05H2.33zm.366 0c-.028 0-.05.02-.067.06a.418.418 0 0 0-.026.163c0 .069.009.122.027.16.018.037.044.056.076.056a.071.071 0 0 0 .036-.01.206.206 0 0 0 .034-.025V9.13h-.001a.117.117 0 0 1-.03.034.063.063 0 0 1-.04.017.047.047 0 0 1-.027-.01.073.073 0 0 1-.021-.026.174.174 0 0 1-.015-.047.37.37 0 0 1-.006-.067h.144v-.039a.363.363 0 0 0-.021-.14c-.015-.033-.035-.05-.061-.05h-.002zm1.114 0a.05.05 0 0 0-.032.015.177.177 0 0 0-.032.043v-.047h-.033v.418h.033v-.312a.184.184 0 0 1 .028-.036c.01-.01.02-.014.028-.014a.03.03 0 0 1 .022.008c.005.005.01.012.012.023.003.01.005.022.006.04a.87.87 0 0 1 .001.053v.238h.033v-.271a.324.324 0 0 0-.016-.118c-.011-.027-.027-.04-.049-.04zm.205 0c-.027 0-.049.02-.065.06a.435.435 0 0 0-.024.16c0 .068.008.122.024.162.016.04.038.059.066.059.027 0 .05-.02.066-.06a.432.432 0 0 0 .024-.16.432.432 0 0 0-.024-.162c-.017-.04-.039-.06-.066-.06zm1.735 0a.046.046 0 0 0-.031.015.2.2 0 0 0-.03.043v-.047h-.034v.418h.033v-.312a.22.22 0 0 1 .027-.036c.01-.01.018-.014.027-.014.01 0 .017.002.022.008a.053.053 0 0 1 .011.024 1.067 1.067 0 0 1 .006.092v.238h.033v-.267a.719.719 0 0 0-.001-.043.222.222 0 0 1 .027-.037c.01-.01.019-.015.028-.015.01 0 .017.002.022.008a.056.056 0 0 1 .011.024 1.074 1.074 0 0 1 .006.092v.238h.033v-.271a.348.348 0 0 0-.015-.116c-.01-.028-.026-.042-.048-.042a.05.05 0 0 0-.035.016.224.224 0 0 0-.036.051.122.122 0 0 0-.02-.05.041.041 0 0 0-.035-.017zm-1.18.001a.103.103 0 0 0-.033.007.187.187 0 0 0-.028.012v.072h.002a.148.148 0 0 1 .032-.021.069.069 0 0 1 .03-.008.07.07 0 0 1 .02.003.034.034 0 0 1 .017.012.062.062 0 0 1 .01.025c.003.01.005.023.005.04v.01a.424.424 0 0 0-.054.009.093.093 0 0 0-.043.023.11.11 0 0 0-.027.046.256.256 0 0 0-.01.077c0 .039.007.07.019.095.012.025.027.038.045.038a.05.05 0 0 0 .025-.006.073.073 0 0 0 .019-.014.105.105 0 0 0 .014-.018.825.825 0 0 1 .012-.018v.044h.032V8.95a.336.336 0 0 0-.005-.068.134.134 0 0 0-.017-.045.063.063 0 0 0-.027-.024.08.08 0 0 0-.035-.008H4.57zm-2.937 0c-.028.001-.05.02-.068.059a.58.58 0 0 0-.02.257c.006.027.012.05.02.068a.106.106 0 0 0 .03.04.064.064 0 0 0 .04.014.057.057 0 0 0 .031-.01.176.176 0 0 0 .031-.026v-.078h-.001a.207.207 0 0 1-.024.032.071.071 0 0 1-.018.015.042.042 0 0 1-.02.005c-.02 0-.035-.013-.045-.04a.337.337 0 0 1-.016-.116c0-.052.005-.091.016-.118.01-.027.026-.04.044-.04.01 0 .02.004.031.013s.022.022.032.038h.001V8.84a.143.143 0 0 0-.03-.024.061.061 0 0 0-.032-.01h-.002zm.186 0c-.028.001-.05.02-.067.059a.58.58 0 0 0-.02.257c.005.027.012.05.02.068a.106.106 0 0 0 .03.04.064.064 0 0 0 .04.014.057.057 0 0 0 .03-.01.176.176 0 0 0 .032-.026v-.078h-.002a.207.207 0 0 1-.023.032.071.071 0 0 1-.019.015.042.042 0 0 1-.02.005c-.02 0-.034-.013-.045-.04a.336.336 0 0 1-.015-.116c0-.052.005-.091.016-.118.01-.027.025-.04.044-.04.01 0 .02.004.03.013.012.009.022.022.032.038h.002V8.84a.143.143 0 0 0-.03-.024.061.061 0 0 0-.033-.01H1.82zm-.364.01v.418h.033v-.418Zm.698 0v.418h.033v-.418Zm.31 0v.418h.034v-.296a.178.178 0 0 1 .027-.038c.01-.01.02-.014.03-.014.006 0 .011 0 .016.002a.06.06 0 0 1 .014.005h.002V8.82a.097.097 0 0 0-.012-.004.045.045 0 0 0-.043.013.216.216 0 0 0-.034.048v-.062zm.716 0v.418h.033v-.418Zm.202 0 .079.418h.033l.079-.418h-.035l-.06.333-.06-.333Zm.234 0v.418h.033v-.418Zm-1.286.047h.001c.018 0 .03.01.039.03.009.02.013.049.013.086H2.27a.217.217 0 0 1 .018-.083c.01-.022.024-.033.041-.033zm.366 0h.001c.018 0 .03.01.04.03.008.02.012.049.012.086h-.112a.217.217 0 0 1 .018-.083c.01-.022.024-.033.041-.033zm1.32.002h.001c.018 0 .031.013.041.04.01.026.015.066.015.12a.362.362 0 0 1-.015.12c-.01.027-.024.04-.041.04-.018 0-.032-.013-.041-.04a.367.367 0 0 1-.015-.12c0-.054.005-.094.014-.12.01-.026.024-.04.041-.04zm-.981.004c.009 0 .017.002.024.005.007.003.014.009.023.017v.24a.156.156 0 0 1-.026.035c-.01.008-.02.013-.029.013-.017 0-.03-.013-.038-.039a.41.41 0 0 1-.012-.113c0-.05.005-.09.016-.117.01-.027.024-.04.042-.041zm1.327 0c.009 0 .016.002.023.005.007.003.015.009.024.017v.24a.156.156 0 0 1-.027.035c-.01.008-.019.013-.028.013-.017 0-.03-.013-.038-.039a.41.41 0 0 1-.012-.113c0-.05.005-.09.016-.117.01-.027.024-.04.042-.041zm-3.041.003c.018 0 .03.013.038.039a.42.42 0 0 1 .012.113.344.344 0 0 1-.016.12c-.01.026-.024.039-.043.039a.049.049 0 0 1-.023-.006.114.114 0 0 1-.024-.018v-.24a.146.146 0 0 1 .028-.034.044.044 0 0 1 .028-.013zm3.305.143v.116a.19.19 0 0 1-.027.035.044.044 0 0 1-.031.014.033.033 0 0 1-.031-.018.115.115 0 0 1-.01-.054c0-.021.002-.038.008-.05a.061.061 0 0 1 .023-.027.098.098 0 0 1 .032-.01.679.679 0 0 1 .036-.006zM3.7 10.586v.12h.077v-.12zm.333 0v.12h.077v-.12zm-1.35.03-.112.65h.079l.02-.132h.113l.021.131h.081l-.112-.65zm1.166.019v.14h-.03v.107h.03v.229c0 .06.007.102.02.127a.069.069 0 0 0 .064.037.116.116 0 0 0 .058-.014v-.108h-.006a.046.046 0 0 1-.013.01.031.031 0 0 1-.015.005.027.027 0 0 1-.021-.009.056.056 0 0 1-.01-.024.187.187 0 0 1-.004-.035V10.882h.069v-.107h-.069v-.14zm.708.125c-.039 0-.07.023-.092.07a.453.453 0 0 0-.033.19c0 .081.011.145.033.191.022.046.053.07.092.07.04 0 .071-.024.093-.07a.453.453 0 0 0 .033-.19c0-.081-.011-.145-.033-.191-.022-.047-.053-.07-.093-.07zm-1.23 0c-.039 0-.07.025-.092.071a.442.442 0 0 0-.035.192c0 .082.012.145.037.189.024.044.06.066.105.066a.12.12 0 0 0 .049-.01.188.188 0 0 0 .047-.03v-.126H3.43a.156.156 0 0 1-.035.038.07.07 0 0 1-.045.018.061.061 0 0 1-.055-.03.18.18 0 0 1-.02-.089h.167v-.055a.423.423 0 0 0-.028-.174c-.019-.04-.047-.06-.084-.06h-.003zm-.255.002a.056.056 0 0 0-.04.018.242.242 0 0 0-.034.046v-.05h-.073v.67h.073v-.205c.01.01.019.019.028.025a.058.058 0 0 0 .073-.009.154.154 0 0 0 .033-.051.363.363 0 0 0 .023-.082.637.637 0 0 0 .009-.11.57.57 0 0 0-.024-.185c-.016-.045-.038-.067-.067-.067h-.001zm.57.011c-.01 0-.021.006-.032.015a.205.205 0 0 0-.043.06v-.073h-.073v.49h.073v-.328a.079.079 0 0 1 .054-.02l.017.003a.039.039 0 0 1 .015.005h.007v-.15a.064.064 0 0 0-.017-.002h-.002zm.06.002v.49h.073v-.49zm.333 0v.49h.073v-.49zm.114 0 .088.49h.083l.088-.49h-.076l-.052.337-.053-.337zm-1.422.007.037.233h-.074zm.597.076c.015 0 .027.008.034.025a.201.201 0 0 1 .011.074h-.095a.168.168 0 0 1 .015-.075c.01-.016.021-.024.035-.024zm1.233.011c.008 0 .014.003.02.008a.057.057 0 0 1 .016.025.213.213 0 0 1 .01.047.598.598 0 0 1-.01.19.056.056 0 0 1-.016.025.03.03 0 0 1-.019.007.032.032 0 0 1-.02-.008.063.063 0 0 1-.016-.025.206.206 0 0 1-.01-.047.612.612 0 0 1 .01-.191.059.059 0 0 1 .017-.024.031.031 0 0 1 .018-.007zm-1.518.011h.001c.017 0 .029.011.037.033a.34.34 0 0 1 .011.104.32.32 0 0 1-.014.11c-.01.024-.024.036-.044.036-.005 0-.01 0-.016-.002a.037.037 0 0 1-.016-.008v-.246a.08.08 0 0 1 .021-.02.04.04 0 0 1 .02-.007zm-.165.804v.181a.102.102 0 0 0-.025-.021.048.048 0 0 0-.06.008.127.127 0 0 0-.028.043.337.337 0 0 0-.02.07.574.574 0 0 0-.006.095c0 .069.007.122.02.16.014.039.033.058.056.058a.048.048 0 0 0 .033-.015c.01-.01.02-.023.03-.04v.043h.033v-.582zm1.688.012c-.023.001-.043.015-.059.042a.207.207 0 0 0-.024.105c0 .029.004.052.01.071a.16.16 0 0 0 .031.053v.002a.145.145 0 0 0-.035.06.262.262 0 0 0-.013.084c0 .048.009.088.025.12.017.03.04.046.068.046.026 0 .048-.016.066-.048a.246.246 0 0 0 .026-.12.232.232 0 0 0-.013-.084.147.147 0 0 0-.037-.055v-.002a.13.13 0 0 0 .032-.057.258.258 0 0 0 .011-.075.2.2 0 0 0-.023-.101c-.016-.027-.036-.04-.062-.04h-.003zm.205.003c-.02 0-.035.014-.046.04a.35.35 0 0 0-.016.125c0 .056.005.097.016.124.01.028.027.041.048.041.02 0 .036-.013.047-.04a.35.35 0 0 0 .017-.125.356.356 0 0 0-.016-.124c-.011-.027-.027-.041-.048-.041h-.002zm-2.536 0c-.041.001-.074.027-.098.078a.502.502 0 0 0-.036.21.73.73 0 0 0 .01.128.342.342 0 0 0 .028.09.141.141 0 0 0 .043.054.094.094 0 0 0 .056.018.093.093 0 0 0 .048-.015.268.268 0 0 0 .047-.037v-.239h-.104v.065h.07v.137a.105.105 0 0 1-.03.018.085.085 0 0 1-.033.007c-.03 0-.055-.02-.072-.06a.428.428 0 0 1-.027-.168c0-.068.009-.123.025-.162.017-.04.04-.06.07-.06.013 0 .024.002.034.007.01.005.02.011.028.02a.434.434 0 0 1 .036.048h.003v-.089a.187.187 0 0 0-.05-.038.1.1 0 0 0-.045-.012h-.003zm1.142.006v.073h.037v-.073zm.96.002c0 .017-.003.03-.006.04a.066.066 0 0 1-.012.023.044.044 0 0 1-.02.012.083.083 0 0 1-.023.003v.051h.054v.374h-.054v.056h.14v-.056h-.052v-.502zm.592.002-.136.557h.028l.137-.557zm-.157.04c.013 0 .02.008.026.025a.347.347 0 0 1 .008.09.352.352 0 0 1-.008.09c-.005.017-.013.025-.025.025-.012 0-.02-.008-.026-.025a.356.356 0 0 1-.007-.09c0-.043.002-.073.007-.09.005-.016.013-.025.025-.025zm-.205.003h.002c.014 0 .027.008.036.024a.12.12 0 0 1 .015.063.254.254 0 0 1-.007.061.155.155 0 0 1-.024.052.418.418 0 0 1-.042-.036.103.103 0 0 1-.022-.035.14.14 0 0 1-.007-.046c0-.026.005-.046.014-.061.01-.014.021-.022.035-.022zm-.775.085a.05.05 0 0 0-.033.015.178.178 0 0 0-.032.043v-.047H3.69v.418h.033v-.312a.184.184 0 0 1 .028-.036c.01-.01.02-.014.028-.014a.03.03 0 0 1 .021.008c.006.005.01.012.013.023.003.01.005.023.006.04a.87.87 0 0 1 .001.053v.238h.033v-.27a.324.324 0 0 0-.016-.118c-.011-.028-.027-.041-.049-.041zm.208 0c-.028 0-.05.02-.067.06a.418.418 0 0 0-.026.163c0 .069.009.122.027.16.018.037.043.056.076.056a.072.072 0 0 0 .036-.01.204.204 0 0 0 .034-.025v-.077h-.002a.117.117 0 0 1-.028.034.063.063 0 0 1-.04.017.046.046 0 0 1-.028-.01.072.072 0 0 1-.022-.026.174.174 0 0 1-.014-.047.37.37 0 0 1-.006-.067h.144v-.039a.363.363 0 0 0-.022-.14c-.014-.033-.034-.05-.06-.05h-.002zm-.449 0c-.027 0-.048.02-.064.06a.435.435 0 0 0-.024.16c0 .069.008.122.024.162.017.04.039.059.066.059.028 0 .05-.02.066-.06a.432.432 0 0 0 .024-.16.432.432 0 0 0-.024-.162c-.017-.04-.038-.06-.066-.06h-.002zm-.948.001a.107.107 0 0 0-.035.007.187.187 0 0 0-.027.012v.072h.001a.15.15 0 0 1 .033-.021.07.07 0 0 1 .029-.008.07.07 0 0 1 .02.003.032.032 0 0 1 .017.012.061.061 0 0 1 .011.025c.003.01.004.023.004.04v.01A.415.415 0 0 0 2.6 12a.093.093 0 0 0-.07.069.256.256 0 0 0-.01.076c0 .039.006.07.019.096.012.025.027.037.044.037.01 0 .018-.002.025-.006a.077.077 0 0 0 .02-.014.106.106 0 0 0 .014-.018l.011-.018v.045h.033v-.284a.335.335 0 0 0-.006-.068.134.134 0 0 0-.016-.044.063.063 0 0 0-.027-.025.082.082 0 0 0-.036-.008H2.6zm.438 0a.107.107 0 0 0-.035.007.187.187 0 0 0-.027.012v.072h.001a.15.15 0 0 1 .033-.021.07.07 0 0 1 .029-.008.07.07 0 0 1 .02.003.032.032 0 0 1 .017.012.061.061 0 0 1 .011.025c.003.01.004.023.004.04v.01a.415.415 0 0 0-.053.01.093.093 0 0 0-.07.069.256.256 0 0 0-.01.076c0 .039.006.07.019.096.012.025.027.037.044.037.01 0 .018-.002.025-.006a.077.077 0 0 0 .02-.014.106.106 0 0 0 .014-.018l.011-.018v.045h.033v-.284a.336.336 0 0 0-.006-.068.134.134 0 0 0-.016-.044.063.063 0 0 0-.027-.025.082.082 0 0 0-.036-.008zm-.553.01c-.01 0-.02.005-.03.015a.215.215 0 0 0-.034.047v-.061h-.033v.417h.033v-.296a.178.178 0 0 1 .027-.037c.01-.01.02-.015.03-.015a.06.06 0 0 1 .016.002l.014.005h.002v-.072a.116.116 0 0 0-.012-.003.048.048 0 0 0-.012-.002zm.689 0v.06h.111l-.114.306v.052h.158v-.059h-.117l.114-.308v-.05zm.202 0v.418h.033v-.417zm.62.047c.018 0 .031.01.04.03.009.02.013.049.013.086h-.112a.217.217 0 0 1 .018-.083c.01-.021.023-.032.04-.033zm-.448.003h.002c.018 0 .031.013.041.04.01.025.015.066.015.12a.362.362 0 0 1-.015.12c-.01.026-.023.04-.04.04-.019 0-.032-.014-.042-.041a.367.367 0 0 1-.015-.12c0-.053.005-.094.015-.12.01-.025.022-.039.04-.04zm-.722.003h.002c.008 0 .016.002.023.005.007.003.015.01.024.018v.24a.156.156 0 0 1-.027.034c-.01.009-.019.013-.028.013-.018 0-.03-.013-.038-.038a.41.41 0 0 1-.012-.114c0-.05.005-.09.015-.117.01-.026.024-.04.041-.04zm2.146.046c-.02 0-.035.014-.045.04a.354.354 0 0 0-.017.125c0 .055.006.097.016.124.011.028.027.041.048.041s.037-.013.048-.04a.35.35 0 0 0 .017-.125.356.356 0 0 0-.017-.124c-.01-.027-.026-.041-.048-.041h-.002zm-.429.04a.902.902 0 0 0 .044.034.111.111 0 0 1 .028.042.172.172 0 0 1 .007.055.161.161 0 0 1-.015.077c-.01.02-.024.028-.041.028s-.03-.01-.041-.032a.247.247 0 0 1-.007-.155.137.137 0 0 1 .025-.05zm.43.01h.002c.011 0 .02.008.025.025a.347.347 0 0 1 .008.09.352.352 0 0 1-.008.09c-.005.017-.014.026-.025.026-.012 0-.02-.009-.026-.025a.356.356 0 0 1-.008-.09c0-.044.003-.074.008-.09.005-.017.013-.026.024-.026zm-2.32.05v.117a.19.19 0 0 1-.026.034.044.044 0 0 1-.032.015.033.033 0 0 1-.03-.018.115.115 0 0 1-.01-.055c0-.02.002-.037.008-.05a.061.061 0 0 1 .023-.026.098.098 0 0 1 .032-.011.515.515 0 0 1 .035-.006zm.438 0v.117a.19.19 0 0 1-.026.034.044.044 0 0 1-.032.015.033.033 0 0 1-.03-.018.115.115 0 0 1-.01-.055c0-.02.002-.037.008-.05a.061.061 0 0 1 .023-.026.098.098 0 0 1 .032-.011.515.515 0 0 1 .035-.006zm-.303.595v.181a.102.102 0 0 0-.025-.021.048.048 0 0 0-.06.008.127.127 0 0 0-.027.043.337.337 0 0 0-.02.07.574.574 0 0 0-.007.095c0 .068.007.122.02.16.015.038.033.058.056.058a.048.048 0 0 0 .034-.015c.01-.01.02-.023.03-.04v.043h.032v-.582Zm2.14 0v.181a.102.102 0 0 0-.024-.021.048.048 0 0 0-.06.008.127.127 0 0 0-.028.043.337.337 0 0 0-.02.07.574.574 0 0 0-.006.095c0 .068.007.122.02.16.014.038.033.058.056.058a.048.048 0 0 0 .033-.015c.01-.01.02-.023.03-.04v.043h.033v-.582Zm-4.087 0a.871.871 0 0 0-.049.166c-.011.06-.017.127-.017.202 0 .075.006.143.017.203.012.06.028.115.049.165h.04v-.004a.518.518 0 0 1-.051-.146 1.014 1.014 0 0 1 0-.436.747.747 0 0 1 .05-.146v-.004zm.098 0v.582h.03l.002-.02c.008.01.017.018.025.023a.05.05 0 0 0 .029.009.046.046 0 0 0 .033-.015.14.14 0 0 0 .027-.044.323.323 0 0 0 .018-.07.575.575 0 0 0 .007-.095.502.502 0 0 0-.02-.16c-.013-.038-.031-.057-.054-.057A.048.048 0 0 0 1 12.81a.181.181 0 0 0-.03.04v-.208zm.694 0v.582h.033v-.312a.183.183 0 0 1 .028-.036c.01-.01.019-.014.028-.014a.03.03 0 0 1 .021.008c.006.004.01.012.013.023.003.01.005.022.006.04a.87.87 0 0 1 .001.053v.238h.033v-.271a.324.324 0 0 0-.016-.118c-.012-.027-.028-.04-.049-.04a.049.049 0 0 0-.033.015.178.178 0 0 0-.032.043v-.21zm4.664 0v.582h.033v-.582zm.091 0v.004c.01.018.018.04.027.063a.72.72 0 0 1 .041.184 1.005 1.005 0 0 1-.041.418.516.516 0 0 1-.027.064v.003h.04a.87.87 0 0 0 .048-.165c.012-.06.017-.128.017-.203 0-.075-.005-.142-.017-.202a.872.872 0 0 0-.048-.166zm-.941.012c-.024.001-.044.015-.06.042a.207.207 0 0 0-.024.105c0 .028.004.052.01.071a.162.162 0 0 0 .031.052v.003a.145.145 0 0 0-.035.06.262.262 0 0 0-.013.083c0 .049.009.089.025.12.017.031.04.047.068.047.026 0 .048-.016.066-.048a.246.246 0 0 0 .026-.12.232.232 0 0 0-.013-.084.147.147 0 0 0-.037-.055v-.003a.13.13 0 0 0 .032-.056.258.258 0 0 0 .011-.075.2.2 0 0 0-.023-.102c-.016-.026-.036-.04-.062-.04h-.002zm.227.002c-.03 0-.052.025-.066.07a.804.804 0 0 0-.022.22c0 .098.008.171.022.219.014.047.037.07.068.07.031 0 .054-.023.068-.07a.8.8 0 0 0 .022-.22.808.808 0 0 0-.021-.217c-.015-.048-.037-.072-.069-.072h-.002zm-4.514.007v.073h.037v-.073zm.698 0v.073h.037v-.073zm1.026 0v.073h.037v-.073zm1.028 0v.073h.037v-.073zm.24 0v.073h.037v-.073zm-.14.023v.12h-.021v.06h.022v.222c0 .05.005.087.015.11.01.023.026.034.046.034a.098.098 0 0 0 .04-.012v-.063h-.002a.088.088 0 0 1-.013.009.034.034 0 0 1-.017.004c-.009 0-.016-.002-.02-.006a.05.05 0 0 1-.01-.022.16.16 0 0 1-.006-.035v-.241h.068v-.06h-.068v-.12zm1.435.023h.002c.014 0 .027.008.036.024a.12.12 0 0 1 .015.064.254.254 0 0 1-.007.061.155.155 0 0 1-.024.052.361.361 0 0 1-.042-.036.103.103 0 0 1-.022-.035.14.14 0 0 1-.007-.047c0-.025.005-.045.014-.06.01-.015.021-.022.035-.023zm.229.008c.012 0 .02.005.028.015.007.01.012.024.016.043a.45.45 0 0 1 .009.072 1.86 1.86 0 0 1-.008.268.112.112 0 0 1-.017.044.033.033 0 0 1-.028.015.033.033 0 0 1-.028-.015.122.122 0 0 1-.016-.045.472.472 0 0 1-.008-.07 2.044 2.044 0 0 1 0-.196.471.471 0 0 1 .008-.072.118.118 0 0 1 .017-.044.032.032 0 0 1 .027-.015zm-3.639.078c-.027 0-.05.02-.067.06a.418.418 0 0 0-.026.162c0 .07.009.123.027.16.018.038.044.057.076.057a.072.072 0 0 0 .036-.01.204.204 0 0 0 .034-.025v-.077h-.002a.117.117 0 0 1-.028.034.063.063 0 0 1-.04.016.046.046 0 0 1-.028-.009.072.072 0 0 1-.022-.027.174.174 0 0 1-.014-.046.368.368 0 0 1-.006-.068h.144v-.038a.363.363 0 0 0-.021-.14c-.015-.033-.035-.05-.061-.05h-.002zm.366 0c-.027 0-.05.02-.067.06a.418.418 0 0 0-.026.162c0 .07.009.123.027.16.018.038.044.057.076.057a.072.072 0 0 0 .036-.01.204.204 0 0 0 .034-.025v-.077h-.002a.117.117 0 0 1-.028.034.063.063 0 0 1-.04.016.046.046 0 0 1-.028-.009.072.072 0 0 1-.022-.027.174.174 0 0 1-.014-.046.37.37 0 0 1-.006-.068h.144v-.038a.363.363 0 0 0-.021-.14c-.015-.033-.035-.05-.061-.05h-.002zm1.018 0a.05.05 0 0 0-.034.016.167.167 0 0 0-.03.039v-.044h-.032v.572h.033v-.175a.1.1 0 0 0 .025.022.057.057 0 0 0 .027.007.047.047 0 0 0 .033-.015c.01-.01.02-.024.028-.043a.31.31 0 0 0 .019-.07.588.588 0 0 0 .007-.094.501.501 0 0 0-.02-.158c-.013-.038-.031-.058-.055-.058zm.207 0c-.028 0-.05.02-.068.06a.418.418 0 0 0-.026.162c0 .07.01.123.027.16.019.038.044.057.076.057a.072.072 0 0 0 .037-.01.204.204 0 0 0 .034-.025v-.077h-.002a.117.117 0 0 1-.03.034.063.063 0 0 1-.04.016.046.046 0 0 1-.027-.009.072.072 0 0 1-.021-.027.174.174 0 0 1-.015-.046.368.368 0 0 1-.005-.068h.143v-.038a.363.363 0 0 0-.021-.14c-.014-.033-.035-.05-.061-.05h-.001zm2.416 0a.046.046 0 0 0-.032.015.202.202 0 0 0-.03.043v-.047h-.034v.418h.033v-.312a.22.22 0 0 1 .027-.036c.01-.01.018-.014.027-.014.01 0 .017.002.022.008a.053.053 0 0 1 .011.024 1.09 1.09 0 0 1 .006.092v.238h.033v-.267a.719.719 0 0 0-.001-.043.22.22 0 0 1 .028-.037c.009-.01.018-.015.027-.015.01 0 .017.003.022.008a.056.056 0 0 1 .011.024 1.129 1.129 0 0 1 .006.092v.238h.033v-.271a.346.346 0 0 0-.015-.116c-.01-.028-.026-.042-.048-.042a.05.05 0 0 0-.035.016.224.224 0 0 0-.036.051.122.122 0 0 0-.02-.05.041.041 0 0 0-.035-.017zm-1.51 0c-.026 0-.047.02-.063.06a.435.435 0 0 0-.025.16c0 .068.008.122.025.162.016.039.038.059.066.059.027 0 .049-.02.065-.06a.432.432 0 0 0 .025-.16.432.432 0 0 0-.025-.162c-.016-.04-.038-.06-.065-.06h-.002zm-1.36.001a.104.104 0 0 0-.033.007.188.188 0 0 0-.028.012v.072h.002a.15.15 0 0 1 .033-.021.07.07 0 0 1 .028-.008c.008 0 .014.001.021.003a.035.035 0 0 1 .017.012.061.061 0 0 1 .01.024c.004.011.005.024.005.04v.011a.415.415 0 0 0-.054.009.093.093 0 0 0-.07.07.256.256 0 0 0-.01.076c0 .039.007.07.02.095.011.025.026.038.044.038.01 0 .018-.002.025-.006a.077.077 0 0 0 .019-.014.106.106 0 0 0 .014-.018l.012-.018v.044h.033v-.283a.335.335 0 0 0-.006-.068.134.134 0 0 0-.017-.045.064.064 0 0 0-.027-.024.082.082 0 0 0-.035-.008h-.003zm1.917 0a.104.104 0 0 0-.034.007.188.188 0 0 0-.027.012v.072h.001a.15.15 0 0 1 .033-.021.07.07 0 0 1 .029-.008c.007 0 .014.001.02.003a.035.035 0 0 1 .017.012.061.061 0 0 1 .011.024c.003.011.004.024.004.04v.011a.415.415 0 0 0-.053.009.093.093 0 0 0-.07.07.256.256 0 0 0-.01.076c0 .039.006.07.019.095.012.025.027.038.044.038.01 0 .018-.002.025-.006a.077.077 0 0 0 .02-.014.106.106 0 0 0 .014-.018l.011-.018v.044h.033v-.283a.335.335 0 0 0-.006-.068.134.134 0 0 0-.016-.045.064.064 0 0 0-.027-.024.082.082 0 0 0-.036-.008h-.002zm-3.75 0c-.029 0-.052.02-.069.059a.58.58 0 0 0-.02.257c.006.027.012.05.02.068a.106.106 0 0 0 .03.04.064.064 0 0 0 .04.013.057.057 0 0 0 .031-.009.174.174 0 0 0 .031-.026v-.078h-.002a.209.209 0 0 1-.023.032.072.072 0 0 1-.018.015.041.041 0 0 1-.02.005c-.02 0-.035-.013-.045-.04a.336.336 0 0 1-.016-.117c0-.051.005-.09.016-.117.01-.027.026-.04.044-.04.01 0 .02.004.031.013s.021.022.031.038h.002v-.078a.14.14 0 0 0-.03-.025.061.061 0 0 0-.032-.01H1.34zm.186 0c-.028 0-.051.02-.068.059a.58.58 0 0 0-.02.257c.005.027.012.05.02.068a.106.106 0 0 0 .03.04.064.064 0 0 0 .04.013.057.057 0 0 0 .03-.009.174.174 0 0 0 .032-.026v-.078h-.002a.209.209 0 0 1-.023.032.072.072 0 0 1-.019.015.041.041 0 0 1-.02.005c-.02 0-.034-.013-.045-.04a.337.337 0 0 1-.016-.117c0-.051.006-.09.017-.117.01-.027.025-.04.044-.04.01 0 .02.004.03.013.012.009.022.022.032.038h.002v-.078a.14.14 0 0 0-.03-.025.061.061 0 0 0-.033-.01h-.001zm.741.01c-.01 0-.02.005-.03.014a.215.215 0 0 0-.034.048v-.062H2.17v.418h.033v-.297a.178.178 0 0 1 .027-.037c.01-.01.02-.014.03-.014a.062.062 0 0 1 .03.007h.002v-.072a.116.116 0 0 0-.012-.004.048.048 0 0 0-.012 0zm1.59 0c-.01 0-.02.005-.03.014a.215.215 0 0 0-.034.048v-.062h-.033v.418h.033v-.297a.178.178 0 0 1 .027-.037c.01-.01.02-.014.03-.014a.06.06 0 0 1 .016.002c.005 0 .01.003.014.005h.002v-.072a.116.116 0 0 0-.012-.004.048.048 0 0 0-.012 0zm-2.696 0v.418h.033v-.418zm.698 0v.418h.033v-.418zm1.026 0v.418h.033v-.418zm1.028 0v.418h.033v-.418zm.24 0v.418h.032v-.418zm.076 0 .078.418h.033l.08-.418h-.035l-.06.333-.06-.333zm-2.195.047h.002c.017 0 .03.01.039.03.009.02.013.049.013.086h-.112a.217.217 0 0 1 .018-.083c.01-.022.024-.033.04-.033zm.366 0h.002c.017 0 .03.01.039.03.009.02.013.049.013.086h-.112a.217.217 0 0 1 .018-.083c.01-.022.024-.033.04-.033zm1.225 0h.001c.018 0 .03.01.04.03.008.02.012.049.012.086h-.111a.217.217 0 0 1 .017-.083c.01-.022.024-.033.04-.033zm.909.002h.002c.017 0 .03.013.04.04.01.026.016.066.016.12a.362.362 0 0 1-.015.12c-.01.027-.024.04-.041.04-.018 0-.032-.013-.042-.04a.367.367 0 0 1-.015-.12c0-.054.005-.094.015-.12.01-.026.023-.039.04-.04zm-1.795.004h.002c.008 0 .016.001.023.005.007.003.014.009.023.017v.24a.156.156 0 0 1-.026.035c-.01.008-.02.013-.029.013-.017 0-.03-.013-.038-.039a.41.41 0 0 1-.012-.113c0-.05.005-.09.016-.117.01-.027.023-.04.04-.041zm2.14 0h.002c.008 0 .016.001.023.005.007.003.015.009.024.017v.24a.156.156 0 0 1-.027.035c-.01.008-.019.013-.028.013-.018 0-.03-.013-.038-.039a.41.41 0 0 1-.012-.113c0-.05.005-.09.015-.117.01-.027.024-.04.041-.041zm-3.854.003h.002c.017 0 .03.013.037.038a.42.42 0 0 1 .012.114.344.344 0 0 1-.016.12c-.01.026-.025.038-.043.038a.05.05 0 0 1-.023-.005.116.116 0 0 1-.024-.019v-.24A.146.146 0 0 1 1 12.876a.044.044 0 0 1 .027-.014zm2.386 0h.002c.016 0 .029.012.037.037a.394.394 0 0 1 .012.113.342.342 0 0 1-.016.117c-.01.027-.024.04-.042.04a.05.05 0 0 1-.023-.005.102.102 0 0 1-.024-.018v-.237a.16.16 0 0 1 .027-.035.043.043 0 0 1 .027-.013zm2.014.082a.75.75 0 0 0 .044.035.112.112 0 0 1 .028.042.172.172 0 0 1 .007.055.161.161 0 0 1-.015.077c-.01.019-.024.028-.041.028s-.03-.011-.041-.033a.247.247 0 0 1-.007-.155.138.138 0 0 1 .025-.05zm-2.197.06v.117a.19.19 0 0 1-.027.035.044.044 0 0 1-.031.014.033.033 0 0 1-.031-.018.115.115 0 0 1-.01-.054c0-.021.003-.038.008-.05a.061.061 0 0 1 .023-.027.103.103 0 0 1 .032-.01.515.515 0 0 1 .036-.006zm1.916 0v.117a.19.19 0 0 1-.026.035.044.044 0 0 1-.032.014.033.033 0 0 1-.03-.018.115.115 0 0 1-.01-.054c0-.021.002-.038.008-.05a.061.061 0 0 1 .023-.027.103.103 0 0 1 .032-.01.515.515 0 0 1 .035-.006zm-1.398 1.573v.679h.074v-.68zm.676 0v.679h.073v-.68zm.14 0v.12h.078v-.12Zm-2.343.017c-.039.001-.07.02-.095.058a.263.263 0 0 0-.038.148c0 .045.005.083.016.114.012.03.03.054.056.072a.18.18 0 0 0 .035.02c.013.004.025.01.037.015.01.006.019.014.024.024.006.01.009.023.009.037a.08.08 0 0 1-.006.035.06.06 0 0 1-.015.02.045.045 0 0 1-.019.008.086.086 0 0 1-.018.003.1.1 0 0 1-.058-.022.21.21 0 0 1-.055-.064h-.008v.156a.252.252 0 0 0 .052.036c.019.01.041.014.066.014.044 0 .078-.02.103-.06a.288.288 0 0 0 .038-.156.299.299 0 0 0-.016-.11.143.143 0 0 0-.052-.066.22.22 0 0 0-.033-.02l-.032-.014a.08.08 0 0 1-.035-.025.072.072 0 0 1-.009-.04c0-.01.002-.02.006-.03a.05.05 0 0 1 .032-.03.064.064 0 0 1 .02-.003c.018 0 .036.007.054.021a.183.183 0 0 1 .045.053h.008v-.15a.183.183 0 0 0-.11-.044H2.22zm.875.157c-.04 0-.07.024-.094.07a.442.442 0 0 0-.034.193c0 .082.012.145.037.189.024.044.06.066.105.066a.12.12 0 0 0 .049-.01.194.194 0 0 0 .047-.03v-.127h-.008a.156.156 0 0 1-.035.039.07.07 0 0 1-.045.018.062.062 0 0 1-.056-.03.18.18 0 0 1-.02-.089h.168v-.055a.424.424 0 0 0-.028-.174c-.019-.04-.047-.06-.084-.06h-.002zm1.148 0c-.039 0-.069.024-.09.07a.453.453 0 0 0-.034.19c0 .08.011.144.033.191.022.046.053.07.093.07s.07-.024.092-.07a.453.453 0 0 0 .033-.19c0-.081-.01-.145-.033-.191-.022-.047-.052-.07-.092-.07h-.002zm.818 0c-.039 0-.069.024-.09.07a.453.453 0 0 0-.034.19c0 .08.011.144.033.191.022.046.053.07.093.07s.07-.024.092-.07a.453.453 0 0 0 .033-.19c0-.081-.01-.145-.033-.191-.022-.047-.052-.07-.092-.07H5.06zm-1.503.001a.24.24 0 0 0-.087.024v.119h.007a.371.371 0 0 1 .03-.021.07.07 0 0 1 .038-.014c.02 0 .036.005.046.016.01.01.016.028.016.055v.003a.433.433 0 0 0-.063.012.115.115 0 0 0-.05.028.128.128 0 0 0-.032.054.286.286 0 0 0-.012.088c0 .045.008.081.022.11.015.029.033.043.055.043.01 0 .018-.001.026-.005a.074.074 0 0 0 .022-.015 1.482 1.482 0 0 0 .031-.045v.052h.073v-.333a.234.234 0 0 0-.028-.13c-.018-.027-.049-.041-.09-.041h-.004zm-.719 0a.056.056 0 0 0-.04.018.242.242 0 0 0-.034.047v-.051h-.073v.67h.073v-.204c.01.01.019.019.028.025a.058.058 0 0 0 .073-.009.154.154 0 0 0 .033-.051.363.363 0 0 0 .023-.082.637.637 0 0 0 .009-.11.57.57 0 0 0-.024-.185c-.016-.045-.038-.068-.067-.068zm1.167 0a.097.097 0 0 0-.05.015.128.128 0 0 0-.042.045.282.282 0 0 0-.03.083.574.574 0 0 0-.01.118c0 .043.003.081.01.114.006.032.016.059.028.08a.13.13 0 0 0 .043.047c.016.01.035.015.055.015.015 0 .029-.003.041-.01a.149.149 0 0 0 .036-.028v-.134h-.01a.446.446 0 0 1-.022.037.072.072 0 0 1-.019.016.047.047 0 0 1-.024.007c-.02 0-.036-.012-.047-.037a.278.278 0 0 1-.016-.107c0-.046.006-.082.016-.108.01-.027.026-.04.045-.04.01 0 .017.002.024.006l.018.016a.12.12 0 0 1 .015.02l.01.018h.01v-.133a.16.16 0 0 0-.036-.029.089.089 0 0 0-.044-.01h-.001zm.818 0a.097.097 0 0 0-.05.015.128.128 0 0 0-.042.045.282.282 0 0 0-.03.083.574.574 0 0 0-.01.118c0 .043.003.081.01.114.006.032.015.059.028.08a.13.13 0 0 0 .043.047c.016.01.034.015.054.015.016 0 .03-.003.042-.01a.149.149 0 0 0 .036-.028v-.134h-.01a.446.446 0 0 1-.022.037.072.072 0 0 1-.019.017.047.047 0 0 1-.024.006c-.02 0-.036-.012-.047-.037a.278.278 0 0 1-.016-.107c0-.046.006-.082.016-.108.01-.027.026-.04.045-.04.01 0 .017.002.024.006l.018.016a.12.12 0 0 1 .015.02l.01.019h.01v-.134a.16.16 0 0 0-.037-.029.089.089 0 0 0-.043-.01h-.001zm-1.415.012c-.01 0-.02.005-.032.015a.207.207 0 0 0-.043.059v-.072h-.073v.49h.073v-.328a.079.079 0 0 1 .054-.02l.017.002a.035.035 0 0 1 .015.006h.007v-.15a.068.068 0 0 0-.017-.002h-.001zm-1.017.002v.319c0 .06.007.107.02.138.014.03.034.047.06.047.015 0 .028-.006.04-.018a.3.3 0 0 0 .037-.05v.054h.073v-.49H2.55v.347a.085.085 0 0 1-.022.022.04.04 0 0 1-.021.008.03.03 0 0 1-.022-.008.047.047 0 0 1-.012-.023.213.213 0 0 1-.005-.041l-.001-.062v-.243zm2.173 0v.49h.074v-.49zm-1.475.083h.001c.015 0 .026.008.034.025a.202.202 0 0 1 .011.074h-.095a.168.168 0 0 1 .015-.076c.009-.015.02-.023.034-.023zm1.153.011h.002c.007 0 .013.002.02.007a.057.057 0 0 1 .015.026.213.213 0 0 1 .01.046.6.6 0 0 1-.01.191.056.056 0 0 1-.016.025.031.031 0 0 1-.019.007.031.031 0 0 1-.02-.008.062.062 0 0 1-.016-.025.206.206 0 0 1-.01-.047.611.611 0 0 1 .011-.192.059.059 0 0 1 .016-.024.03.03 0 0 1 .017-.006zm.818 0h.002c.007 0 .013.002.02.007a.057.057 0 0 1 .015.026.213.213 0 0 1 .01.046.6.6 0 0 1-.01.191.056.056 0 0 1-.016.025.031.031 0 0 1-.019.007.031.031 0 0 1-.02-.008.062.062 0 0 1-.016-.025.206.206 0 0 1-.01-.047.611.611 0 0 1 .01-.192.059.059 0 0 1 .017-.024.03.03 0 0 1 .017-.006zm-2.255.011h.001c.017 0 .029.01.036.032a.34.34 0 0 1 .012.104.32.32 0 0 1-.014.11c-.01.024-.024.036-.044.036l-.016-.001a.036.036 0 0 1-.016-.008v-.247a.077.077 0 0 1 .02-.019.04.04 0 0 1 .021-.007zm.801.155v.102a.087.087 0 0 1-.02.025.034.034 0 0 1-.022.01.041.041 0 0 1-.02-.004.036.036 0 0 1-.012-.013.05.05 0 0 1-.006-.018.207.207 0 0 1-.001-.025.1.1 0 0 1 .006-.037.046.046 0 0 1 .017-.022.083.083 0 0 1 .026-.01.406.406 0 0 1 .032-.008zm-.732.649v.181a.102.102 0 0 0-.025-.021.048.048 0 0 0-.06.008.126.126 0 0 0-.028.043.337.337 0 0 0-.02.07.574.574 0 0 0-.006.095c0 .068.007.122.02.16.014.039.033.058.056.058a.048.048 0 0 0 .033-.015c.01-.01.02-.023.03-.04v.043h.033v-.582Zm1.69.014c-.03 0-.053.024-.067.07a.804.804 0 0 0-.022.22c0 .098.007.171.021.219.015.047.038.07.069.07.03 0 .053-.023.068-.07a.8.8 0 0 0 .022-.22.808.808 0 0 0-.022-.217c-.014-.048-.037-.072-.068-.072h-.002zm.203 0c-.02.001-.035.015-.046.041a.35.35 0 0 0-.016.125c0 .056.005.097.016.124.01.027.027.04.048.04.02 0 .036-.013.047-.04a.35.35 0 0 0 .017-.124.356.356 0 0 0-.016-.124c-.011-.028-.027-.041-.048-.041h-.002zm-2.535 0c-.042.002-.075.028-.099.078a.502.502 0 0 0-.036.211c0 .049.003.091.01.128a.342.342 0 0 0 .028.09.141.141 0 0 0 .043.054.094.094 0 0 0 .056.018.094.094 0 0 0 .048-.015.269.269 0 0 0 .047-.037v-.24h-.104v.066h.07v.136a.105.105 0 0 1-.03.019.083.083 0 0 1-.033.007c-.03 0-.055-.02-.072-.06a.428.428 0 0 1-.027-.168c0-.069.009-.123.025-.163.017-.04.04-.06.07-.06.013 0 .024.003.034.008.01.005.02.01.028.019a.43.43 0 0 1 .036.048h.003v-.088a.187.187 0 0 0-.05-.039.102.102 0 0 0-.045-.012h-.002zm1.14.007v.073h.038v-.073zm.99.004-.125.314v.086h.124v.157h.034V16.1h.039v-.06h-.039v-.34zm.563 0-.136.557h.028l.137-.557zm-.157.04c.013 0 .02.008.026.025a.347.347 0 0 1 .008.09.352.352 0 0 1-.008.09c-.005.017-.013.025-.025.025-.012 0-.02-.008-.026-.025a.357.357 0 0 1-.007-.09c0-.043.002-.073.007-.09s.013-.025.025-.026zm-.205.01h.002c.01 0 .02.005.027.015.007.01.013.024.017.043.004.02.007.044.008.072a1.86 1.86 0 0 1-.008.268.112.112 0 0 1-.017.044.033.033 0 0 1-.027.015.033.033 0 0 1-.028-.015.122.122 0 0 1-.017-.045.473.473 0 0 1-.008-.07 2.044 2.044 0 0 1 0-.196.471.471 0 0 1 .009-.072.118.118 0 0 1 .017-.044.033.033 0 0 1 .025-.015zm-.202.04v.25h-.1ZM4 15.827c-.029 0-.052.02-.07.06a.418.418 0 0 0-.025.163c0 .069.009.122.027.16.018.037.043.056.076.056a.072.072 0 0 0 .036-.01.204.204 0 0 0 .034-.025v-.077h-.002a.117.117 0 0 1-.028.034.063.063 0 0 1-.04.016.047.047 0 0 1-.028-.009.073.073 0 0 1-.022-.027.173.173 0 0 1-.014-.046.37.37 0 0 1-.006-.068h.144v-.038a.363.363 0 0 0-.022-.14c-.014-.033-.034-.05-.06-.05zm-.45 0c-.027 0-.049.02-.065.06a.435.435 0 0 0-.024.16c0 .068.008.122.024.162.017.039.039.059.066.059.028 0 .05-.02.066-.06a.432.432 0 0 0 .024-.16.432.432 0 0 0-.024-.162c-.017-.04-.038-.06-.066-.06H3.55zm.239 0a.05.05 0 0 0-.032.015.177.177 0 0 0-.032.043v-.047H3.69v.418h.033v-.312a.183.183 0 0 1 .028-.036c.01-.01.02-.014.028-.014a.03.03 0 0 1 .021.007c.006.005.01.013.013.023a.87.87 0 0 1 .007.094v.238h.033v-.271a.324.324 0 0 0-.016-.118c-.011-.027-.027-.04-.049-.04h-.001zm-1.189.001a.104.104 0 0 0-.034.007.194.194 0 0 0-.027.012v.072h.001a.146.146 0 0 1 .033-.021.069.069 0 0 1 .029-.008c.007 0 .014.001.02.003a.032.032 0 0 1 .017.012.061.061 0 0 1 .011.025c.003.01.004.023.004.04v.01a.383.383 0 0 0-.053.01.094.094 0 0 0-.043.022.11.11 0 0 0-.027.046.256.256 0 0 0-.01.077c0 .039.006.07.019.095.012.025.027.038.044.038a.05.05 0 0 0 .025-.006.074.074 0 0 0 .02-.014.102.102 0 0 0 .014-.018l.011-.018v.044h.033v-.283a.336.336 0 0 0-.006-.068.134.134 0 0 0-.016-.044.063.063 0 0 0-.027-.025.08.08 0 0 0-.036-.008H2.6zm.438 0a.104.104 0 0 0-.034.007.194.194 0 0 0-.027.012v.072h.001a.146.146 0 0 1 .033-.021.069.069 0 0 1 .029-.008c.007 0 .014.001.02.003a.032.032 0 0 1 .017.012.061.061 0 0 1 .011.025c.003.01.004.023.004.04v.01a.383.383 0 0 0-.053.01.094.094 0 0 0-.043.022.11.11 0 0 0-.027.046.256.256 0 0 0-.01.077c0 .039.006.07.019.095.012.025.027.038.044.038a.05.05 0 0 0 .025-.006.074.074 0 0 0 .02-.014.102.102 0 0 0 .014-.018l.011-.018v.044h.033v-.283a.335.335 0 0 0-.006-.068.134.134 0 0 0-.016-.044.063.063 0 0 0-.027-.025.08.08 0 0 0-.036-.008h-.002zm-.65.01v.418h.034v-.297a.178.178 0 0 1 .027-.037c.01-.01.02-.014.03-.014a.065.065 0 0 1 .03.007h.002v-.072l-.012-.004a.048.048 0 0 0-.012-.001c-.01 0-.02.005-.03.014a.218.218 0 0 0-.035.048v-.062zm.787 0v.059h.111l-.114.307v.052h.158v-.06h-.117l.114-.308v-.05zm.202 0v.418h.033v-.418zm.62.047c.018 0 .031.01.04.03.009.02.013.049.013.086h-.112a.217.217 0 0 1 .018-.083c.01-.022.024-.033.04-.033zm-.447.002h.001c.018 0 .031.013.041.04.01.026.015.066.015.12a.362.362 0 0 1-.015.12c-.01.027-.023.04-.04.04-.019 0-.032-.013-.042-.04a.367.367 0 0 1-.015-.12c0-.054.005-.094.015-.12.01-.026.023-.04.04-.04zm-.722.004h.001c.008 0 .016.002.023.005.007.003.015.01.024.018v.24a.156.156 0 0 1-.027.034c-.01.008-.019.013-.028.013-.018 0-.03-.013-.038-.039a.41.41 0 0 1-.012-.113c0-.05.005-.09.015-.117.01-.027.024-.04.042-.041zm2.146.046c-.02 0-.036.014-.046.04a.354.354 0 0 0-.017.125c0 .055.006.096.016.124.011.027.027.041.048.041s.037-.014.048-.04a.35.35 0 0 0 .017-.125.356.356 0 0 0-.017-.125c-.01-.027-.026-.04-.048-.04h-.001zm0 .05h.002c.011 0 .02.008.025.025a.347.347 0 0 1 .008.09.352.352 0 0 1-.008.09c-.005.017-.014.025-.025.025-.012 0-.02-.008-.026-.025a.357.357 0 0 1-.008-.09c0-.043.003-.073.008-.09s.013-.025.024-.026zm-2.32.05v.116a.19.19 0 0 1-.026.035.044.044 0 0 1-.032.014.033.033 0 0 1-.03-.018.115.115 0 0 1-.01-.054c0-.021.002-.038.008-.05a.06.06 0 0 1 .023-.027.1.1 0 0 1 .032-.01.593.593 0 0 1 .035-.006zm.438 0v.116a.19.19 0 0 1-.026.035.044.044 0 0 1-.032.014.033.033 0 0 1-.03-.018.115.115 0 0 1-.01-.054c0-.021.002-.038.008-.05a.06.06 0 0 1 .023-.027.1.1 0 0 1 .032-.01.593.593 0 0 1 .035-.006zm-2.788.595a.87.87 0 0 0-.048.165c-.011.06-.017.128-.017.203 0 .075.006.142.017.202.012.06.028.115.048.166h.04v-.004a.517.517 0 0 1-.05-.146 1.013 1.013 0 0 1 0-.436.746.746 0 0 1 .05-.147v-.004zm.098 0v.582h.031l.002-.02c.008.01.016.017.025.023a.05.05 0 0 0 .029.008.046.046 0 0 0 .032-.014.139.139 0 0 0 .028-.045.322.322 0 0 0 .018-.07.575.575 0 0 0 .007-.094.502.502 0 0 0-.02-.16c-.013-.039-.031-.058-.054-.058a.048.048 0 0 0-.035.016.182.182 0 0 0-.03.04v-.208zm.695 0v.582h.033v-.312a.184.184 0 0 1 .028-.036c.01-.01.019-.015.028-.015a.03.03 0 0 1 .021.008c.006.005.01.013.013.023.003.01.005.023.006.04a.87.87 0 0 1 .001.054v.238h.033v-.271a.324.324 0 0 0-.017-.118c-.01-.027-.027-.04-.048-.04a.05.05 0 0 0-.034.015.177.177 0 0 0-.031.042v-.21zm1.484 0v.18a.102.102 0 0 0-.025-.02.048.048 0 0 0-.06.008.126.126 0 0 0-.028.043.337.337 0 0 0-.019.07.573.573 0 0 0-.007.095c0 .068.007.121.02.16.014.038.033.057.056.057a.048.048 0 0 0 .033-.014c.01-.01.02-.023.03-.04v.043h.033v-.582zm1.533 0v.582h.033v-.582zm.502 0v.582h.033v-.582zm.851 0v.18a.102.102 0 0 0-.025-.02.048.048 0 0 0-.06.008.126.126 0 0 0-.028.043.337.337 0 0 0-.019.07.573.573 0 0 0-.007.095c0 .068.007.121.02.16.014.038.033.057.056.057a.048.048 0 0 0 .033-.014c.01-.01.02-.023.03-.04v.043h.033v-.582zm1.368 0v.582h.033v-.582zm.091 0v.003a.721.721 0 0 1 .068.248 1.005 1.005 0 0 1-.04.418.516.516 0 0 1-.028.063v.004h.04a.871.871 0 0 0 .048-.166c.012-.06.017-.127.017-.202 0-.075-.005-.143-.017-.203a.871.871 0 0 0-.048-.165zm-.713.013c-.03.001-.052.025-.067.072a.804.804 0 0 0-.021.219c0 .098.007.17.021.218.015.048.037.071.069.071.03 0 .053-.023.068-.07a.8.8 0 0 0 .022-.22.808.808 0 0 0-.022-.217c-.014-.048-.037-.072-.068-.072h-.002zm-5.59.008v.073H.66v-.073zm.699 0v.073h.037v-.073zm.464 0v.073h.037v-.073zm.89 0v.073h.038v-.073zm2.036 0v.073h.037v-.073zm1.3.004-.126.314v.086h.125v.157h.034v-.157h.038v-.06h-.038v-.34zm.201.05h.002c.01 0 .02.005.027.015.007.01.012.024.016.043.005.02.007.043.009.071a1.896 1.896 0 0 1-.008.269.112.112 0 0 1-.017.044.033.033 0 0 1-.027.015.033.033 0 0 1-.029-.016.122.122 0 0 1-.016-.044.47.47 0 0 1-.008-.07 2.037 2.037 0 0 1 .008-.268.118.118 0 0 1 .017-.044.033.033 0 0 1 .026-.015zm-.202.039v.251h-.1Zm-4.51.038c-.027 0-.05.02-.067.06a.418.418 0 0 0-.026.163c0 .07.009.123.027.16.018.038.043.057.076.057a.072.072 0 0 0 .036-.01.204.204 0 0 0 .034-.025v-.077h-.002a.117.117 0 0 1-.029.033.063.063 0 0 1-.04.017.047.047 0 0 1-.027-.009.072.072 0 0 1-.022-.027.174.174 0 0 1-.015-.046.37.37 0 0 1-.005-.068h.144v-.038a.363.363 0 0 0-.022-.14c-.014-.033-.034-.05-.06-.05H1.5zm2.118 0c-.028 0-.05.02-.068.06a.418.418 0 0 0-.026.163c0 .07.009.123.027.16.018.038.044.057.076.057a.072.072 0 0 0 .036-.01.204.204 0 0 0 .034-.025v-.077h-.002a.117.117 0 0 1-.028.033.063.063 0 0 1-.04.017.047.047 0 0 1-.028-.009.072.072 0 0 1-.022-.027.173.173 0 0 1-.014-.046.37.37 0 0 1-.006-.068h.144v-.038a.363.363 0 0 0-.021-.14c-.015-.033-.035-.05-.061-.05zm-1.636 0a.05.05 0 0 0-.033.016.177.177 0 0 0-.031.043v-.047h-.033v.418h.033v-.312a.184.184 0 0 1 .028-.036c.01-.01.019-.014.028-.014a.03.03 0 0 1 .021.007c.006.005.01.013.013.023.003.01.005.023.006.04a.87.87 0 0 1 .001.054v.238h.033v-.271a.324.324 0 0 0-.017-.118c-.01-.027-.027-.04-.048-.04h-.001zm.204 0c-.027.001-.048.021-.064.06a.435.435 0 0 0-.025.161c0 .068.009.122.025.162.016.039.038.059.066.059.027 0 .049-.02.065-.06a.432.432 0 0 0 .025-.16.432.432 0 0 0-.025-.162c-.016-.04-.038-.06-.065-.06h-.002zm1.225 0a.05.05 0 0 0-.034.017.168.168 0 0 0-.03.039v-.044h-.032v.572h.032v-.175c.009.01.017.017.025.022a.054.054 0 0 0 .028.007.047.047 0 0 0 .033-.015c.01-.01.02-.024.027-.043a.31.31 0 0 0 .02-.07.588.588 0 0 0 .006-.094.501.501 0 0 0-.02-.158c-.012-.038-.03-.057-.054-.057H3.41zm1.061 0c-.027.001-.048.021-.064.06a.435.435 0 0 0-.025.161c0 .068.008.122.025.162.016.039.038.059.065.059.028 0 .05-.02.066-.06a.432.432 0 0 0 .025-.16.432.432 0 0 0-.025-.162c-.016-.04-.038-.06-.066-.06zm.6 0c-.027.001-.048.021-.064.06a.435.435 0 0 0-.024.161c0 .068.008.122.024.162.016.039.038.059.066.059.027 0 .049-.02.065-.06a.432.432 0 0 0 .025-.16.432.432 0 0 0-.025-.162c-.016-.04-.038-.06-.065-.06h-.002zm1.508 0a.046.046 0 0 0-.031.016.202.202 0 0 0-.03.043v-.047h-.034v.418h.033v-.312a.22.22 0 0 1 .027-.036c.01-.01.018-.014.027-.014.01 0 .017.002.022.008a.053.053 0 0 1 .011.024 1.121 1.121 0 0 1 .006.092v.238h.033v-.268a.72.72 0 0 0 0-.042.222.222 0 0 1 .027-.038c.009-.01.018-.015.027-.015.01 0 .017.003.022.008a.056.056 0 0 1 .012.025 1.129 1.129 0 0 1 .006.092v.238h.032v-.271a.347.347 0 0 0-.015-.117c-.01-.028-.026-.042-.047-.042a.05.05 0 0 0-.036.016.224.224 0 0 0-.036.052.122.122 0 0 0-.02-.05.041.041 0 0 0-.034-.018H6.58zm-3.614.002a.059.059 0 0 0-.032.01.078.078 0 0 0-.025.028.148.148 0 0 0-.015.041.232.232 0 0 0 .006.118c.007.019.02.033.036.043a.17.17 0 0 0 .02.01l.02.007a.052.052 0 0 1 .025.022c.004.008.006.02.006.037 0 .022-.004.037-.012.047a.042.042 0 0 1-.034.015.061.061 0 0 1-.036-.014.15.15 0 0 1-.035-.04h-.002v.079a.15.15 0 0 0 .03.024c.013.007.026.01.04.01.026 0 .046-.011.06-.036a.179.179 0 0 0 .023-.094.182.182 0 0 0-.012-.073.076.076 0 0 0-.036-.039.19.19 0 0 0-.019-.008l-.02-.009a.053.053 0 0 1-.024-.021.08.08 0 0 1-.007-.039c0-.02.004-.034.012-.044a.038.038 0 0 1 .03-.015c.012 0 .024.005.036.014.012.01.022.02.03.033h.002v-.075a.1.1 0 0 0-.065-.031h-.002zm.996 0a.104.104 0 0 0-.034.007.194.194 0 0 0-.027.012v.071h.001a.147.147 0 0 1 .033-.02.069.069 0 0 1 .029-.008c.007 0 .014.001.02.003a.032.032 0 0 1 .017.012.061.061 0 0 1 .011.024c.003.011.004.024.004.04v.011a.383.383 0 0 0-.053.01.094.094 0 0 0-.043.022.11.11 0 0 0-.027.046.256.256 0 0 0-.01.077c0 .039.006.07.019.095.012.025.027.038.044.038a.05.05 0 0 0 .025-.006.075.075 0 0 0 .02-.014.105.105 0 0 0 .013-.018l.012-.018v.044h.033v-.283a.336.336 0 0 0-.006-.068.134.134 0 0 0-.016-.045.063.063 0 0 0-.027-.024.08.08 0 0 0-.036-.008h-.002zm1.666 0a.104.104 0 0 0-.034.007.194.194 0 0 0-.027.012v.071h.001a.147.147 0 0 1 .033-.02.069.069 0 0 1 .03-.008l.02.003a.032.032 0 0 1 .016.012.061.061 0 0 1 .012.024c.002.011.004.024.004.04v.011a.383.383 0 0 0-.054.01.094.094 0 0 0-.043.022.11.11 0 0 0-.027.046.256.256 0 0 0-.01.077c0 .039.006.07.019.095.012.025.027.038.044.038a.05.05 0 0 0 .025-.006.075.075 0 0 0 .02-.014.105.105 0 0 0 .014-.018l.012-.018v.044h.032v-.283a.335.335 0 0 0-.006-.068.134.134 0 0 0-.016-.045.063.063 0 0 0-.027-.024.08.08 0 0 0-.036-.008h-.002zm-4.826 0c-.027.001-.05.02-.067.059a.581.581 0 0 0-.02.257c.005.027.012.05.02.068a.106.106 0 0 0 .03.04.064.064 0 0 0 .04.013.058.058 0 0 0 .03-.01.175.175 0 0 0 .032-.025v-.078H.865a.187.187 0 0 1-.023.032.073.073 0 0 1-.019.015.041.041 0 0 1-.02.005c-.019 0-.034-.013-.044-.04a.337.337 0 0 1-.016-.117c0-.051.005-.09.016-.117.01-.027.025-.04.044-.04.01 0 .02.004.031.013s.021.021.031.038h.002v-.078a.14.14 0 0 0-.03-.025.061.061 0 0 0-.033-.01H.802zm.187 0c-.028.001-.05.02-.068.059a.58.58 0 0 0-.02.257c.006.027.012.05.021.068a.106.106 0 0 0 .03.04.064.064 0 0 0 .039.013.058.058 0 0 0 .031-.01.175.175 0 0 0 .032-.025v-.078h-.002a.19.19 0 0 1-.024.032.073.073 0 0 1-.018.015.041.041 0 0 1-.02.005c-.02 0-.034-.013-.045-.04a.337.337 0 0 1-.016-.117c0-.051.006-.09.016-.117.011-.027.026-.04.045-.04.01 0 .02.004.03.013.011.009.022.021.032.038h.002v-.078a.14.14 0 0 0-.03-.025.061.061 0 0 0-.033-.01H.989zm3.301 0c-.027.001-.05.02-.067.059a.58.58 0 0 0-.02.257c.005.027.012.05.02.068a.106.106 0 0 0 .03.04.064.064 0 0 0 .04.013.058.058 0 0 0 .03-.01.175.175 0 0 0 .032-.025v-.078h-.002a.19.19 0 0 1-.023.032.073.073 0 0 1-.019.015.041.041 0 0 1-.02.005c-.02 0-.034-.013-.045-.04a.337.337 0 0 1-.015-.117c0-.051.005-.09.016-.117.01-.027.025-.04.044-.04.01 0 .02.004.031.013.01.009.021.021.031.038h.002v-.078a.14.14 0 0 0-.03-.025.061.061 0 0 0-.033-.01H4.29zm.6 0c-.027.001-.05.02-.067.059a.58.58 0 0 0-.02.257c.006.027.012.05.02.068a.106.106 0 0 0 .03.04.064.064 0 0 0 .04.013.058.058 0 0 0 .03-.01.175.175 0 0 0 .032-.025v-.078h-.002a.19.19 0 0 1-.023.032.073.073 0 0 1-.018.015.041.041 0 0 1-.02.005c-.02 0-.035-.013-.045-.04a.337.337 0 0 1-.016-.117c0-.051.005-.09.016-.117.01-.027.026-.04.044-.04.01 0 .02.004.031.013s.021.021.031.038h.002v-.078a.14.14 0 0 0-.03-.025.061.061 0 0 0-.032-.01H4.89zm-4.265.01v.418h.033v-.418zm.698 0v.418h.032v-.418zm.31 0v.418h.034v-.297a.178.178 0 0 1 .027-.037c.01-.01.02-.014.03-.014a.065.065 0 0 1 .03.007h.002v-.072l-.012-.004a.048.048 0 0 0-.012 0c-.01 0-.02.004-.031.013a.218.218 0 0 0-.034.048v-.062zm.154 0v.418h.033v-.418zm.89 0v.418h.034v-.418zm.41 0v.271c0 .052.005.092.017.119.011.026.027.04.048.04a.047.047 0 0 0 .033-.015c.01-.01.021-.025.032-.043v.046h.033v-.418h-.033v.312a.165.165 0 0 1-.028.036c-.01.01-.02.015-.028.015-.01 0-.017-.003-.022-.008a.055.055 0 0 1-.012-.024.186.186 0 0 1-.006-.038.914.914 0 0 1-.001-.055v-.238zm.664 0v.418h.033v-.297a.178.178 0 0 1 .027-.037c.01-.01.02-.014.03-.014a.065.065 0 0 1 .03.007h.002v-.072l-.012-.004a.048.048 0 0 0-.012 0c-.01 0-.02.004-.03.013a.218.218 0 0 0-.035.048v-.062zm.962 0v.418h.033v-.418zm-3.214.047c.018 0 .031.01.04.03.008.02.013.049.013.085H1.44a.217.217 0 0 1 .018-.082c.01-.022.024-.033.04-.034zm2.117 0h.001c.017 0 .03.01.039.03.009.02.013.049.013.085h-.112a.217.217 0 0 1 .018-.082c.01-.022.024-.033.04-.034zm-1.43.002h.002c.017 0 .031.013.04.04.01.026.016.066.016.12a.362.362 0 0 1-.015.12c-.01.027-.024.04-.041.04-.018 0-.032-.013-.042-.04a.367.367 0 0 1-.015-.12c0-.054.005-.094.015-.12.01-.026.023-.04.04-.04zm2.286 0h.001c.018 0 .032.013.042.04.01.026.015.066.015.12a.362.362 0 0 1-.015.12c-.01.027-.024.04-.042.04-.017 0-.031-.013-.04-.04a.367.367 0 0 1-.016-.12c0-.054.005-.094.015-.12.01-.026.023-.04.04-.04zm.6 0h.002c.017 0 .031.013.041.04.01.026.015.066.015.12a.362.362 0 0 1-.015.12c-.01.027-.024.04-.041.04-.018 0-.032-.013-.042-.04a.367.367 0 0 1-.015-.12c0-.054.005-.094.015-.12.01-.026.023-.04.04-.04zm-2.54.004h.001c.009 0 .016.001.023.005.007.003.015.009.024.017v.24a.156.156 0 0 1-.027.035c-.01.008-.019.013-.028.013-.018 0-.03-.013-.038-.039a.41.41 0 0 1-.012-.113c0-.05.005-.09.015-.117.01-.027.024-.04.042-.041zm2.886 0h.001c.009 0 .016.001.023.005.007.003.015.009.024.017v.24a.156.156 0 0 1-.027.035c-.01.008-.019.013-.028.013-.018 0-.03-.013-.038-.039a.41.41 0 0 1-.012-.113c0-.05.005-.09.015-.117.01-.027.024-.04.042-.041zm-4.928.003c.018 0 .03.012.038.038a.42.42 0 0 1 .011.114.344.344 0 0 1-.015.12c-.01.026-.025.038-.043.038a.048.048 0 0 1-.023-.005.117.117 0 0 1-.024-.019V16.9a.146.146 0 0 1 .028-.034.044.044 0 0 1 .028-.013zm2.912 0h.001c.017 0 .03.012.037.037a.394.394 0 0 1 .013.113.342.342 0 0 1-.016.117c-.01.027-.024.04-.043.04a.05.05 0 0 1-.023-.005.112.112 0 0 1-.024-.018V16.9a.16.16 0 0 1 .028-.034.043.043 0 0 1 .027-.014zm.614.143v.116a.19.19 0 0 1-.026.035.044.044 0 0 1-.032.014.033.033 0 0 1-.03-.018.115.115 0 0 1-.01-.054c0-.021.002-.038.008-.05a.06.06 0 0 1 .023-.027.1.1 0 0 1 .032-.01.515.515 0 0 1 .035-.006zm1.667 0v.116a.19.19 0 0 1-.027.035.044.044 0 0 1-.032.014.033.033 0 0 1-.03-.018.115.115 0 0 1-.01-.054c0-.021.002-.038.008-.05a.06.06 0 0 1 .023-.027.1.1 0 0 1 .032-.01.593.593 0 0 1 .036-.006z"/><text xml:space="preserve" style="font-weight:700;font-size:.98944px;font-family:sans-serif;-inkscape-font-specification:'sans-serif Bold';text-align:center;text-anchor:middle;fill:maroon;stroke-width:.011595" x="6.075" y=".781" transform="scale(.96588 1.03532)"><tspan style="font-size:.98944px;stroke-width:.011595" x="6.075" y=".781">Una Bevanda Alcolica </tspan><tspan style="font-size:.98944px;stroke-width:.011595" x="6.075" y="2.017">corrisponde a</tspan></text><g><path d="M9.593 4.632a.198.198 0 0 1 0 .162H8.589a.198.198 0 0 1 0-.162z" fill="#e6e5e0" style="stroke-width:.00389818" transform="matrix(1.10013 0 0 1.13528 -.838 -.649)"/><path d="M9.593 3.601H8.589v.109h1.004z" fill="#ffc864" style="stroke-width:.00389818" transform="matrix(1.10013 0 0 1.13528 -.838 -.649)"/><path d="M9.593 3.71H8.589v.922h1.004z" fill="#ecab2c" style="stroke-width:.00389818" transform="matrix(1.10013 0 0 1.13528 -.838 -.649)"/><path d="M9.162 3.872c0-.03-.032-.054-.071-.054-.04 0-.072.024-.072.054v.597c0 .03.032.054.072.054.04 0 .071-.024.071-.054zM8.876 3.872c0-.03-.033-.054-.072-.054-.04 0-.072.024-.072.054v.597c0 .03.032.054.072.054.04 0 .072-.024.072-.054zM9.45 3.872c0-.03-.033-.054-.072-.054-.04 0-.072.024-.072.054v.597c0 .03.032.054.072.054.04 0 .071-.024.071-.054z" fill="#d78e0c" style="stroke-width:.00389818" transform="matrix(1.10013 0 0 1.13528 -.838 -.649)"/><path d="M9.593 3.71h.161c.072 0 .14.021.19.06.05.037.08.09.08.143v.461a.182.182 0 0 1-.08.144.318.318 0 0 1-.19.06h-.161v-.163h.125a.106.106 0 0 0 .064-.02.06.06 0 0 0 .026-.048V3.94a.06.06 0 0 0-.026-.048.106.106 0 0 0-.064-.02h-.125Z" fill="#e6e5e0" style="stroke-width:.00389818" transform="matrix(1.10013 0 0 1.13528 -.838 -.649)"/><path d="M8.66 3.601c.02 0 .038.006.051.016.014.01.021.024.021.038 0 .018.005.036.014.052a.14.14 0 0 0 .039.044c.033.026.079.04.126.04a.23.23 0 0 0 .069-.01.191.191 0 0 0 .058-.03.14.14 0 0 0 .04-.044.108.108 0 0 0 .013-.052c0-.014.007-.028.02-.038a.085.085 0 0 1 .051-.016h.43l.044-.082a.102.102 0 0 0-.006-.105.145.145 0 0 0-.049-.045.201.201 0 0 0-.07-.024h-.002a.363.363 0 0 1-.164-.067.191.191 0 0 0-.082-.034.224.224 0 0 0-.093.003l-.022.005a.385.385 0 0 1-.186 0 .344.344 0 0 0-.23.023l-.074.038a.244.244 0 0 1-.073.023.306.306 0 0 0-.117.042.213.213 0 0 0-.076.08.157.157 0 0 0-.019.073v.26c0 .022.012.042.032.058.02.015.048.023.076.023a.127.127 0 0 0 .076-.023.073.073 0 0 0 .032-.058v-.136c0-.014.007-.028.02-.038a.085.085 0 0 1 .051-.016z" fill="#ecebe6" style="stroke-width:.00389818" transform="matrix(1.10013 0 0 1.13528 -.838 -.649)"/><path d="M8.553 3.493c.02 0 .036-.012.036-.027s-.016-.028-.036-.028c-.02 0-.036.013-.036.028 0 .015.016.027.036.027zM8.804 3.411c.02 0 .036-.012.036-.027s-.016-.027-.036-.027c-.02 0-.036.012-.036.027s.016.027.036.027zM8.876 3.547c.02 0 .035-.012.035-.027s-.016-.027-.035-.027c-.02 0-.036.012-.036.027s.016.027.036.027zM9.019 3.493c.02 0 .036-.012.036-.027s-.016-.028-.036-.028c-.02 0-.036.013-.036.028 0 .015.016.027.036.027zM9.234 3.411c.02 0 .036-.012.036-.027s-.016-.027-.036-.027c-.02 0-.036.012-.036.027s.016.027.036.027zM9.7 3.71h-.107v.162H9.7zM9.7 4.415h-.107v.162H9.7z" fill="#aeadaa" style="stroke-width:.00389818" transform="matrix(1.10013 0 0 1.13528 -.838 -.649)"/><g><path d="M8.423 6.93h1.296V8.99H8.423Z" style="fill:none;fill-rule:evenodd;stroke-width:.0117818" transform="matrix(1.19695 0 0 1.10213 -1.704 -.888)"/><path fill="#d1e7f8" d="M9.356 8.694c-.201 0-.232-.078-.236-.112v-.495c0-.08.092-.102.092-.102h-.29s.091.023.091.102v.495c-.004.034-.034.112-.236.112a.051.051 0 0 0-.052.05c0 .028.024.05.052.05h.58a.051.051 0 0 0 .051-.05c0-.048-.052-.05-.052-.05z" style="stroke-width:.0117818" transform="matrix(1.19695 0 0 1.10213 -1.704 -.888)"/><path fill="#96c8ef" d="M8.885 8.76c.201 0 .231-.084.235-.118v-.555c0-.08.092-.102.092-.102h-.29s.091.023.091.102v.495c-.004.034-.034.112-.236.112a.051.051 0 0 0-.052.05c0 .028.024.05.052.05h.058a.052.052 0 0 1 .05-.035z" style="stroke-width:.0117818" transform="matrix(1.19695 0 0 1.10213 -1.704 -.888)"/><path fill="#96c8ef" d="M9.12 8.087c0-.08.092-.102.092-.102h-.29s.091.023.091.102v.022a.555.555 0 0 0 .107 0z" style="stroke-width:.0117818" transform="matrix(1.19695 0 0 1.10213 -1.704 -.888)"/><path fill="#e7f4ff" d="M9.417 7.33a.048.048 0 0 0-.041-.024h-.618a.048.048 0 0 0-.042.023.548.548 0 0 0-.077.269.42.42 0 0 0 .428.412.42.42 0 0 0 .428-.412.548.548 0 0 0-.078-.269z" style="stroke-width:.0117818" transform="matrix(1.19695 0 0 1.10213 -1.704 -.888)"/><path fill="#b5e1ff" d="M8.924 7.598c0-.087.028-.182.078-.269a.048.048 0 0 1 .041-.023h-.285a.048.048 0 0 0-.042.023.548.548 0 0 0-.077.269.42.42 0 0 0 .428.412.44.44 0 0 0 .142-.024.414.414 0 0 1-.285-.388Z" style="stroke-width:.0117818" transform="matrix(1.19695 0 0 1.10213 -1.704 -.888)"/><g transform="matrix(.01437 0 0 .01275 8.741 7.53)" style="fill:none;fill-rule:evenodd"><mask id="b" fill="#fff"><use xlink:href="#a"/></mask><path d="M.273.531c3.752 16.271 13.113 24.406 28.082 24.406 14.97 0 24.333-8.135 28.089-24.406H.274Z" style="fill:#b30020;fill-rule:nonzero"/><path fill="#a2001d" fill-rule="nonzero" d="M0-.303c1.274 14.465 13.566 25.24 28.356 25.24.703 0 1.4-.027 2.09-.077C22.733 18.932 17.499 9.928 16.609-.303 16.518-1.33-.072-1.13 0-.303Z" mask="url(#b)"/></g></g><path d="M8.362 10.64H9.69v2.073H8.362Z" style="fill:none;fill-rule:evenodd;stroke-width:.0119609"/><g><path fill="#b5e1ff" d="M9.187 12.435H9.12c-.058 0-.063-.058-.064-.073v-.318c0-.203.064-.228.064-.228h-.195s.064.025.064.23v.316c0 .014-.005.073-.064.073H8.86a.046.046 0 0 0-.047.044c0 .024.021.044.047.044h.328c.026 0 .047-.02.047-.044a.046.046 0 0 0-.047-.044z" style="fill-rule:nonzero;stroke-width:.0119609" transform="matrix(1.14695 0 0 1.22569 -1.25 -2.511)"/><path fill="#b9d8f4" d="M8.925 12.435H8.86a.046.046 0 0 0-.047.044c0 .024.021.044.047.044h.072a.046.046 0 0 1-.047-.044c0-.034.041-.044.041-.044z" style="fill-rule:nonzero;stroke-width:.0119609" transform="matrix(1.14695 0 0 1.22569 -1.25 -2.511)"/><path fill="#96c8ef" d="M8.981 11.934c.03.008.054.007.084 0 .017-.103.055-.118.055-.118h-.195s.039.015.056.118z" style="fill-rule:nonzero;stroke-width:.0119609" transform="matrix(1.14695 0 0 1.22569 -1.25 -2.511)"/><path fill="#d1e7f8" d="M9.527 11.22a.056.056 0 0 0-.05-.028h-.91c-.02 0-.039.011-.048.028a.05.05 0 0 0 .002.054l.302.442c.01.016.088.128.2.128.112 0 .19-.112.2-.128l.302-.442a.05.05 0 0 0 .002-.054z" style="fill-rule:nonzero;stroke-width:.0119609" transform="matrix(1.14695 0 0 1.22569 -1.25 -2.511)"/><path fill="#b5e1ff" d="m9.08 11.716-.302-.442a.05.05 0 0 1-.002-.054.056.056 0 0 1 .05-.028h-.258c-.02 0-.04.011-.05.028a.05.05 0 0 0 .003.054l.302.442c.01.016.088.128.2.128a.209.209 0 0 0 .129-.05.358.358 0 0 1-.072-.078z" style="fill-rule:nonzero;stroke-width:.0119609" transform="matrix(1.14695 0 0 1.22569 -1.25 -2.511)"/><path fill="#ff0c38" d="m8.726 11.453.146.214s.058.1.15.1c.084 0 .144-.09.151-.1l.146-.214h-.593Z" style="fill-rule:nonzero;stroke-width:.0119609" transform="matrix(1.14695 0 0 1.22569 -1.25 -2.511)"/><path fill="#d80027" d="m8.726 11.453.146.214s.058.1.15.1c.03 0 .055-.011.077-.025a.315.315 0 0 1-.019-.026l-.18-.262zm.36.16c-.01-.007-.014-.02-.007-.032l.061-.089a.025.025 0 0 1 .034-.007.023.023 0 0 1 .008.033l-.061.089c-.005.007-.02.016-.034.007z" style="fill-rule:nonzero;stroke-width:.0119609" transform="matrix(1.14695 0 0 1.22569 -1.25 -2.511)"/></g><g><path d="M8.317 14.439h1.357v2.059H8.317Z" style="fill:none;fill-rule:evenodd;stroke-width:.0120517" transform="matrix(1.1218 0 0 1.07295 -.878 -1.204)"/><path fill="#e7f4ff" d="M9.431 15.43a.048.048 0 0 0-.034-.013h-.799a.048.048 0 0 0-.034.014.04.04 0 0 0-.012.033l.089.809c.002.022.022.039.046.039h.621c.024 0 .044-.017.047-.039l.088-.81a.04.04 0 0 0-.012-.032z" style="fill-rule:nonzero;stroke-width:.0120517" transform="matrix(1.1218 0 0 1.07295 -.878 -1.204)"/><path fill="#b5e1ff" d="m8.831 16.273-.088-.81a.04.04 0 0 1 .012-.032.048.048 0 0 1 .034-.014h-.19a.048.048 0 0 0-.035.014.04.04 0 0 0-.012.033l.088.809c.003.022.023.039.047.039h.19c-.023 0-.043-.017-.046-.039z" style="fill-rule:nonzero;stroke-width:.0120517" transform="matrix(1.1218 0 0 1.07295 -.878 -1.204)"/><path fill="#ffac00" d="M9.312 15.865a.037.037 0 0 0-.026-.01h-.577c-.01 0-.02.003-.026.01a.03.03 0 0 0-.009.025l.039.32c.002.016.017.028.035.028h.5c.017 0 .033-.012.034-.029l.039-.319a.03.03 0 0 0-.009-.025z" style="fill-rule:nonzero;stroke-width:.0120517" transform="matrix(1.1218 0 0 1.07295 -.878 -1.204)"/><path fill="#fc9505" d="m8.89 16.21-.038-.32a.03.03 0 0 1 .009-.025.037.037 0 0 1 .026-.01h-.178c-.01 0-.02.003-.026.01a.03.03 0 0 0-.009.025l.039.32c.002.016.017.028.035.028h.178c-.018 0-.034-.012-.035-.029z" style="fill-rule:nonzero;stroke-width:.0120517" transform="matrix(1.1218 0 0 1.07295 -.878 -1.204)"/><path fill="#e6f6ff" d="m8.94 16.007-.132-.121a.042.042 0 0 1 0-.063l.132-.121a.051.051 0 0 1 .068 0l.131.121a.042.042 0 0 1 0 .063l-.131.121a.051.051 0 0 1-.068 0z" style="fill-rule:nonzero;stroke-width:.0120517" transform="matrix(1.1218 0 0 1.07295 -.878 -1.204)"/><path fill="#ffb64f" d="M9.157 15.86a.038.038 0 0 0-.019-.006H8.79c0 .01.004.018.011.025l.147.135a.04.04 0 0 0 .053 0l.147-.135a.033.033 0 0 0 .01-.02z" style="fill-rule:nonzero;stroke-width:.0120517" transform="matrix(1.1218 0 0 1.07295 -.878 -1.204)"/><path fill="#fff" d="m9.087 16.007-.132-.121a.042.042 0 0 1 0-.063l.132-.121a.051.051 0 0 1 .068 0l.132.121a.042.042 0 0 1 0 .063l-.132.121a.051.051 0 0 1-.068 0z" style="fill-rule:nonzero;stroke-width:.0120517" transform="matrix(1.1218 0 0 1.07295 -.878 -1.204)"/><path fill="#ffc471" d="M9.305 15.86a.038.038 0 0 0-.02-.006h-.348c0 .01.004.018.011.025l.147.135a.04.04 0 0 0 .053 0l.146-.135a.033.033 0 0 0 .01-.02z" style="fill-rule:nonzero;stroke-width:.0120517" transform="matrix(1.1218 0 0 1.07295 -.878 -1.204)"/><path fill="#fc9505" d="M9.228 16.054c-.01-.002-.018-.01-.017-.02l.001-.01c.002-.01.01-.017.021-.016.01 0 .018.01.017.019l-.001.011c-.001.009-.005.017-.02.016zm-.012.132h-.002c-.01-.001-.018-.01-.017-.02l.009-.082c0-.01.01-.017.02-.016.011.001.019.01.018.02l-.01.082c0 .01-.009.016-.018.016z" style="fill-rule:nonzero;stroke-width:.0120517" transform="matrix(1.1218 0 0 1.07295 -.878 -1.204)"/></g></g></svg>